<svg viewBox="0 0 12 176" fill="none" xmlns="http://www.w3.org/2000/svg">
  <mask id="path-1-inside-1_10_48" fill="white">
    <path
      d="M0 0.999999C0 0.447714 0.447715 0 1 0H11C11.5523 0 12 0.447715 12 1V175C12 175.552 11.5523 176 11 176H1C0.447715 176 0 175.552 0 175V0.999999Z" />
  </mask>
  <path
    d="M0 0H12H0ZM12 176H0H12ZM1 176C-0.380712 176 -1.5 174.881 -1.5 173.5V2.5C-1.5 1.11929 -0.380712 0 1 0H1.5C1.5 0 1.5 0.447715 1.5 1V175C1.5 175.552 1.5 176 1.5 176H1ZM11 0C12.3807 0 13.5 1.11929 13.5 2.5V173.5C13.5 174.881 12.3807 176 11 176H10.5C10.5 176 10.5 175.552 10.5 175V1C10.5 0.447715 10.5 0 10.5 0H11Z"
    fill="#05FF00"
    fill-opacity="0.5"
    mask="url(#path-1-inside-1_10_48)"
  />
  <rect
    x="0.129779"
    y="0.367987"
    width="7.504"
    height="1.42027"
    rx="0.710135"
    transform="matrix(0.849239 0.528009 -0.330124 0.943938 3.02497 0.952106)"
    stroke="white"
    stroke-width="0.5"
  />
  <rect
    x="0.129779"
    y="0.367987"
    width="7.504"
    height="1.42027"
    rx="0.710135"
    transform="matrix(0.849239 0.528009 -0.330124 0.943938 3.02497 4.95211)"
    stroke="white"
    stroke-width="0.5"
  />
  <rect
    x="0.129779"
    y="0.367987"
    width="7.504"
    height="1.42027"
    rx="0.710135"
    transform="matrix(0.849239 0.528009 -0.330124 0.943938 3.02497 8.95211)"
    stroke="white"
    stroke-width="0.5"
  />
  <rect
    x="0.129779"
    y="0.367987"
    width="7.504"
    height="1.42027"
    rx="0.710135"
    transform="matrix(0.849239 0.528009 -0.330124 0.943938 3.02497 12.9521)"
    stroke="white"
    stroke-width="0.5"
  />
  <rect
    x="0.129779"
    y="0.367987"
    width="7.504"
    height="1.42027"
    rx="0.710135"
    transform="matrix(0.849239 0.528009 -0.330124 0.943938 3.02497 16.9521)"
    stroke="white"
    stroke-width="0.5"
  />
  <rect
    x="0.129779"
    y="0.367987"
    width="7.504"
    height="1.42027"
    rx="0.710135"
    transform="matrix(0.849239 0.528009 -0.330124 0.943938 3.02497 20.9521)"
    stroke="white"
    stroke-width="0.5"
  />
  <rect
    x="0.129779"
    y="0.367987"
    width="7.504"
    height="1.42027"
    rx="0.710135"
    transform="matrix(0.849239 0.528009 -0.330124 0.943938 3.02497 24.9521)"
    stroke="white"
    stroke-width="0.5"
  />
  <rect
    x="0.129779"
    y="0.367987"
    width="7.504"
    height="1.42027"
    rx="0.710135"
    transform="matrix(0.849239 0.528009 -0.330124 0.943938 3.02497 28.9521)"
    stroke="white"
    stroke-width="0.5"
  />
  <rect
    x="0.129779"
    y="0.367987"
    width="7.504"
    height="1.42027"
    rx="0.710135"
    transform="matrix(0.849239 0.528009 -0.330124 0.943938 3.02497 32.9521)"
    stroke="white"
    stroke-width="0.5"
  />
  <rect
    x="0.129779"
    y="0.367987"
    width="7.504"
    height="1.42027"
    rx="0.710135"
    transform="matrix(0.849239 0.528009 -0.330124 0.943938 3.02497 36.9521)"
    stroke="white"
    stroke-width="0.5"
  />
  <rect
    x="0.129779"
    y="0.367987"
    width="7.504"
    height="1.42027"
    rx="0.710135"
    transform="matrix(0.849239 0.528009 -0.330124 0.943938 3.02497 40.9521)"
    stroke="white"
    stroke-width="0.5"
  />
  <rect
    x="0.129779"
    y="0.367987"
    width="7.504"
    height="1.42027"
    rx="0.710135"
    transform="matrix(0.849239 0.528009 -0.330124 0.943938 3.02497 44.9521)"
    stroke="white"
    stroke-width="0.5"
  />
  <rect
    x="0.129779"
    y="0.367987"
    width="7.504"
    height="1.42027"
    rx="0.710135"
    transform="matrix(0.849239 0.528009 -0.330124 0.943938 3.02497 48.9521)"
    stroke="white"
    stroke-width="0.5"
  />
  <rect
    x="0.129779"
    y="0.367987"
    width="7.504"
    height="1.42027"
    rx="0.710135"
    transform="matrix(0.849239 0.528009 -0.330124 0.943938 3.02497 52.9521)"
    stroke="white"
    stroke-width="0.5"
  />
  <rect
    x="0.129779"
    y="0.367987"
    width="7.504"
    height="1.42027"
    rx="0.710135"
    transform="matrix(0.849239 0.528009 -0.330124 0.943938 3.02497 56.9521)"
    stroke="white"
    stroke-width="0.5"
  />
  <rect
    x="0.129779"
    y="0.367987"
    width="7.504"
    height="1.42027"
    rx="0.710135"
    transform="matrix(0.849239 0.528009 -0.330124 0.943938 3.02497 60.9521)"
    stroke="white"
    stroke-width="0.5"
  />
  <rect
    x="0.129779"
    y="0.367987"
    width="7.504"
    height="1.42027"
    rx="0.710135"
    transform="matrix(0.849239 0.528009 -0.330124 0.943938 2.77497 64.9521)"
    stroke="white"
    stroke-width="0.5"
  />
  <rect
    x="0.129779"
    y="0.367987"
    width="7.504"
    height="1.42027"
    rx="0.710135"
    transform="matrix(0.849239 0.528009 -0.330124 0.943938 3.02497 104.952)"
    stroke="white"
    stroke-width="0.5"
  />
  <rect
    x="0.129779"
    y="0.367987"
    width="7.504"
    height="1.42027"
    rx="0.710135"
    transform="matrix(0.849239 0.528009 -0.330124 0.943938 3.02497 104.952)"
    stroke="white"
    stroke-width="0.5"
  />
  <rect
    x="0.129779"
    y="0.367987"
    width="7.504"
    height="1.42027"
    rx="0.710135"
    transform="matrix(0.849239 0.528009 -0.330124 0.943938 3.02105 100.952)"
    stroke="white"
    stroke-width="0.5"
  />
  <rect
    x="0.129779"
    y="0.367987"
    width="7.504"
    height="1.42027"
    rx="0.710135"
    transform="matrix(0.849239 0.528009 -0.330124 0.943938 3.02497 108.952)"
    stroke="white"
    stroke-width="0.5"
  />
  <rect
    x="0.129779"
    y="0.367987"
    width="7.504"
    height="1.42027"
    rx="0.710135"
    transform="matrix(0.849239 0.528009 -0.330124 0.943938 3.02497 112.952)"
    stroke="white"
    stroke-width="0.5"
  />
  <rect
    x="0.129779"
    y="0.367987"
    width="7.504"
    height="1.42027"
    rx="0.710135"
    transform="matrix(0.849239 0.528009 -0.330124 0.943938 3.02497 116.952)"
    stroke="white"
    stroke-width="0.5"
  />
  <rect
    x="0.129779"
    y="0.367987"
    width="7.504"
    height="1.42027"
    rx="0.710135"
    transform="matrix(0.849239 0.528009 -0.330124 0.943938 3.02497 120.952)"
    stroke="white"
    stroke-width="0.5"
  />
  <rect
    x="0.129779"
    y="0.367987"
    width="7.504"
    height="1.42027"
    rx="0.710135"
    transform="matrix(0.849239 0.528009 -0.330124 0.943938 3.02497 124.952)"
    stroke="white"
    stroke-width="0.5"
  />
  <rect
    x="0.129779"
    y="0.367987"
    width="7.504"
    height="1.42027"
    rx="0.710135"
    transform="matrix(0.849239 0.528009 -0.330124 0.943938 3.02497 128.952)"
    stroke="white"
    stroke-width="0.5"
  />
  <rect
    x="0.129779"
    y="0.367987"
    width="7.504"
    height="1.42027"
    rx="0.710135"
    transform="matrix(0.849239 0.528009 -0.330124 0.943938 3.02497 132.952)"
    stroke="white"
    stroke-width="0.5"
  />
  <rect
    x="0.129779"
    y="0.367987"
    width="7.504"
    height="1.42027"
    rx="0.710135"
    transform="matrix(0.849239 0.528009 -0.330124 0.943938 3.02497 136.952)"
    stroke="white"
    stroke-width="0.5"
  />
  <rect
    x="0.129779"
    y="0.367987"
    width="7.504"
    height="1.42027"
    rx="0.710135"
    transform="matrix(0.849239 0.528009 -0.330124 0.943938 3.02497 140.952)"
    stroke="white"
    stroke-width="0.5"
  />
  <rect
    x="0.129779"
    y="0.367987"
    width="7.504"
    height="1.42027"
    rx="0.710135"
    transform="matrix(0.849239 0.528009 -0.330124 0.943938 3.02497 144.952)"
    stroke="white"
    stroke-width="0.5"
  />
  <rect
    x="0.129779"
    y="0.367987"
    width="7.504"
    height="1.42027"
    rx="0.710135"
    transform="matrix(0.849239 0.528009 -0.330124 0.943938 3.02497 148.952)"
    stroke="white"
    stroke-width="0.5"
  />
  <rect
    x="0.129779"
    y="0.367987"
    width="7.504"
    height="1.42027"
    rx="0.710135"
    transform="matrix(0.849239 0.528009 -0.330124 0.943938 3.02497 152.952)"
    stroke="white"
    stroke-width="0.5"
  />
  <rect
    x="0.129779"
    y="0.367987"
    width="7.504"
    height="1.42027"
    rx="0.710135"
    transform="matrix(0.849239 0.528009 -0.330124 0.943938 3.02497 156.952)"
    stroke="white"
    stroke-width="0.5"
  />
  <rect
    x="0.129779"
    y="0.367987"
    width="7.504"
    height="1.42027"
    rx="0.710135"
    transform="matrix(0.849239 0.528009 -0.330124 0.943938 3.02497 160.952)"
    stroke="white"
    stroke-width="0.5"
  />
  <rect
    x="0.129779"
    y="0.367987"
    width="7.504"
    height="1.42027"
    rx="0.710135"
    transform="matrix(0.849239 0.528009 -0.330124 0.943938 3.02497 164.952)"
    stroke="white"
    stroke-width="0.5"
  />
  <rect
    x="0.129779"
    y="0.367987"
    width="7.504"
    height="1.42027"
    rx="0.710135"
    transform="matrix(0.849239 0.528009 -0.330124 0.943938 3.02497 168.952)"
    stroke="white"
    stroke-width="0.5"
  />
  <mask id="path-39-outside-2_10_48" maskUnits="userSpaceOnUse" x="2" y="73" width="8" height="26"
    fill="black">
    <rect fill="white" x="2" y="73" width="8" height="26" />
    <path
      d="M3 73.8409H8.81818V77.0881H8.48864V74.196H6.0767L6.0767 76.8182H5.74716L5.74716 74.196H3V73.8409ZM8.81818 78.8835H3V78.5284H8.81818V78.8835ZM8.81818 85.0135H3V84.6669L8.1733 80.9567V80.9226H3V80.5675H8.81818V80.9169L3.6392 84.6271V84.6612H8.81818V85.0135ZM8.81818 87.0476H3V86.6925H8.81818V87.0476ZM7.36364 91.8679C7.72538 91.8376 8.01799 91.6899 8.24148 91.4247C8.46496 91.1615 8.5767 90.8205 8.5767 90.402C8.5767 90.1198 8.52462 89.8688 8.42045 89.6491C8.31629 89.4295 8.17424 89.2571 7.99432 89.1321C7.81439 89.0071 7.60795 88.9446 7.375 88.9446C7.22538 88.9446 7.08996 88.973 6.96875 89.0298C6.84943 89.0885 6.74242 89.1709 6.64773 89.277C6.55492 89.383 6.47348 89.509 6.40341 89.6548C6.33333 89.8007 6.27178 89.9616 6.21875 90.1378L6.03125 90.7741C5.96496 90.992 5.88826 91.1927 5.80114 91.3764C5.71402 91.562 5.60985 91.723 5.48864 91.8594C5.36932 91.9976 5.22917 92.1046 5.06818 92.1804C4.9072 92.258 4.72159 92.2969 4.51136 92.2969C4.20455 92.2969 3.92992 92.2173 3.6875 92.0582C3.44508 91.901 3.25379 91.6766 3.11364 91.3849C2.97538 91.0952 2.90625 90.7533 2.90625 90.3594C2.90625 89.9844 2.9697 89.6577 3.09659 89.3793C3.22348 89.1027 3.39962 88.884 3.625 88.723C3.85227 88.562 4.11364 88.4711 4.40909 88.4503V88.8139C4.16856 88.8329 3.96023 88.9096 3.78409 89.044C3.60985 89.1804 3.47538 89.3613 3.38068 89.5866C3.28598 89.812 3.23864 90.0696 3.23864 90.3594C3.23864 90.6719 3.29167 90.9474 3.39773 91.1861C3.50568 91.4247 3.6553 91.6113 3.84659 91.7457C4.03788 91.8802 4.26042 91.9474 4.5142 91.9474C4.71875 91.9474 4.89394 91.8991 5.03977 91.8026C5.18561 91.706 5.31155 91.563 5.41761 91.3736C5.52367 91.1861 5.61837 90.9531 5.7017 90.6747L5.90625 89.9957C6.04451 89.5412 6.23295 89.1937 6.47159 88.9531C6.71023 88.7145 7.00758 88.5952 7.36364 88.5952C7.66288 88.5952 7.92803 88.6747 8.15909 88.8338C8.39205 88.9929 8.57481 89.2088 8.70739 89.4815C8.83996 89.7562 8.90625 90.0658 8.90625 90.4105C8.90625 90.7571 8.83902 91.063 8.70455 91.3281C8.57197 91.5933 8.3892 91.8035 8.15625 91.9588C7.92519 92.1141 7.66098 92.2003 7.36364 92.2173V91.8679ZM3 93.7003H8.81818V94.0554H6.0767L6.0767 97.5611H8.81818V97.9162H3V97.5611H5.74716L5.74716 94.0554H3V93.7003Z" />
  </mask>
  <path
    d="M3 73.8409H8.81818V77.0881H8.48864V74.196H6.0767L6.0767 76.8182H5.74716L5.74716 74.196H3V73.8409ZM8.81818 78.8835H3V78.5284H8.81818V78.8835ZM8.81818 85.0135H3V84.6669L8.1733 80.9567V80.9226H3V80.5675H8.81818V80.9169L3.6392 84.6271V84.6612H8.81818V85.0135ZM8.81818 87.0476H3V86.6925H8.81818V87.0476ZM7.36364 91.8679C7.72538 91.8376 8.01799 91.6899 8.24148 91.4247C8.46496 91.1615 8.5767 90.8205 8.5767 90.402C8.5767 90.1198 8.52462 89.8688 8.42045 89.6491C8.31629 89.4295 8.17424 89.2571 7.99432 89.1321C7.81439 89.0071 7.60795 88.9446 7.375 88.9446C7.22538 88.9446 7.08996 88.973 6.96875 89.0298C6.84943 89.0885 6.74242 89.1709 6.64773 89.277C6.55492 89.383 6.47348 89.509 6.40341 89.6548C6.33333 89.8007 6.27178 89.9616 6.21875 90.1378L6.03125 90.7741C5.96496 90.992 5.88826 91.1927 5.80114 91.3764C5.71402 91.562 5.60985 91.723 5.48864 91.8594C5.36932 91.9976 5.22917 92.1046 5.06818 92.1804C4.9072 92.258 4.72159 92.2969 4.51136 92.2969C4.20455 92.2969 3.92992 92.2173 3.6875 92.0582C3.44508 91.901 3.25379 91.6766 3.11364 91.3849C2.97538 91.0952 2.90625 90.7533 2.90625 90.3594C2.90625 89.9844 2.9697 89.6577 3.09659 89.3793C3.22348 89.1027 3.39962 88.884 3.625 88.723C3.85227 88.562 4.11364 88.4711 4.40909 88.4503V88.8139C4.16856 88.8329 3.96023 88.9096 3.78409 89.044C3.60985 89.1804 3.47538 89.3613 3.38068 89.5866C3.28598 89.812 3.23864 90.0696 3.23864 90.3594C3.23864 90.6719 3.29167 90.9474 3.39773 91.1861C3.50568 91.4247 3.6553 91.6113 3.84659 91.7457C4.03788 91.8802 4.26042 91.9474 4.5142 91.9474C4.71875 91.9474 4.89394 91.8991 5.03977 91.8026C5.18561 91.706 5.31155 91.563 5.41761 91.3736C5.52367 91.1861 5.61837 90.9531 5.7017 90.6747L5.90625 89.9957C6.04451 89.5412 6.23295 89.1937 6.47159 88.9531C6.71023 88.7145 7.00758 88.5952 7.36364 88.5952C7.66288 88.5952 7.92803 88.6747 8.15909 88.8338C8.39205 88.9929 8.57481 89.2088 8.70739 89.4815C8.83996 89.7562 8.90625 90.0658 8.90625 90.4105C8.90625 90.7571 8.83902 91.063 8.70455 91.3281C8.57197 91.5933 8.3892 91.8035 8.15625 91.9588C7.92519 92.1141 7.66098 92.2003 7.36364 92.2173V91.8679ZM3 93.7003H8.81818V94.0554H6.0767L6.0767 97.5611H8.81818V97.9162H3V97.5611H5.74716L5.74716 94.0554H3V93.7003Z"
    fill="white"
  />
  <path
    d="M3 73.8409V73.3409H2.5V73.8409H3ZM8.81818 73.8409H9.31818V73.3409H8.81818V73.8409ZM8.81818 77.0881V77.5881H9.31818V77.0881H8.81818ZM8.48864 77.0881H7.98864V77.5881H8.48864V77.0881ZM8.48864 74.196H8.98864V73.696H8.48864V74.196ZM6.0767 74.196V73.696H5.5767V74.196H6.0767ZM6.0767 76.8182V77.3182H6.5767V76.8182H6.0767ZM5.74716 76.8182H5.24716V77.3182H5.74716V76.8182ZM5.74716 74.196H6.24716V73.696H5.74716V74.196ZM3 74.196H2.5V74.696H3V74.196ZM3 74.3409H8.81818V73.3409H3V74.3409ZM8.31818 73.8409V77.0881H9.31818V73.8409H8.31818ZM8.81818 76.5881H8.48864V77.5881H8.81818V76.5881ZM8.98864 77.0881V74.196H7.98864L7.98864 77.0881H8.98864ZM8.48864 73.696H6.0767V74.696H8.48864V73.696ZM5.5767 74.196L5.5767 76.8182H6.5767L6.5767 74.196H5.5767ZM6.0767 76.3182H5.74716V77.3182H6.0767V76.3182ZM6.24716 76.8182L6.24716 74.196H5.24716L5.24716 76.8182H6.24716ZM5.74716 73.696H3V74.696H5.74716V73.696ZM3.5 74.196V73.8409H2.5V74.196H3.5ZM8.81818 78.8835V79.3835H9.31818L9.31818 78.8835H8.81818ZM3 78.8835H2.5V79.3835H3V78.8835ZM3 78.5284V78.0284H2.5L2.5 78.5284H3ZM8.81818 78.5284H9.31818V78.0284H8.81818V78.5284ZM8.81818 78.3835H3V79.3835H8.81818V78.3835ZM3.5 78.8835V78.5284H2.5V78.8835H3.5ZM3 79.0284H8.81818V78.0284H3V79.0284ZM8.31818 78.5284V78.8835H9.31818V78.5284H8.31818ZM8.81818 85.0135V85.5135H9.31818V85.0135H8.81818ZM3 85.0135H2.5V85.5135H3V85.0135ZM3 84.6669L2.7086 84.2606L2.5 84.4102V84.6669H3ZM8.1733 80.9567L8.46469 81.363L8.6733 81.2134V80.9567H8.1733ZM8.1733 80.9226H8.6733V80.4226H8.1733V80.9226ZM3 80.9226H2.5V81.4226H3L3 80.9226ZM3 80.5675V80.0675H2.5V80.5675H3ZM8.81818 80.5675H9.31818V80.0675H8.81818V80.5675ZM8.81818 80.9169L9.10937 81.3234L9.31818 81.1738V80.9169H8.81818ZM3.6392 84.6271L3.34802 84.2207L3.1392 84.3703V84.6271H3.6392ZM3.6392 84.6612H3.1392V85.1612H3.6392V84.6612ZM8.81818 84.6612H9.31818V84.1612H8.81818V84.6612ZM8.81818 84.5135H3V85.5135H8.81818V84.5135ZM3.5 85.0135V84.6669H2.5V85.0135H3.5ZM3.2914 85.0732L8.46469 81.363L7.8819 80.5504L2.7086 84.2606L3.2914 85.0732ZM8.6733 80.9567V80.9226H7.6733V80.9567H8.6733ZM8.1733 80.4226H3L3 81.4226H8.1733V80.4226ZM3.5 80.9226V80.5675H2.5V80.9226H3.5ZM3 81.0675H8.81818V80.0675H3L3 81.0675ZM8.31818 80.5675V80.9169H9.31818V80.5675H8.31818ZM8.52699 80.5104L3.34802 84.2207L3.93039 85.0336L9.10937 81.3234L8.52699 80.5104ZM3.1392 84.6271V84.6612H4.1392V84.6271H3.1392ZM3.6392 85.1612H8.81818V84.1612H3.6392V85.1612ZM8.31818 84.6612V85.0135H9.31818V84.6612H8.31818ZM8.81818 87.0476V87.5476H9.31818V87.0476H8.81818ZM3 87.0476H2.5V87.5476H3V87.0476ZM3 86.6925L3 86.1925H2.5V86.6925H3ZM8.81818 86.6925H9.31818V86.1925H8.81818V86.6925ZM8.81818 86.5476H3V87.5476H8.81818V86.5476ZM3.5 87.0476V86.6925H2.5V87.0476H3.5ZM3 87.1925H8.81818V86.1925H3L3 87.1925ZM8.31818 86.6925V87.0476H9.31818V86.6925H8.31818ZM7.36364 91.8679L7.3219 91.3696L6.86364 91.408L6.86364 91.8679H7.36364ZM8.24148 91.4247L7.8603 91.1011L7.85916 91.1025L8.24148 91.4247ZM8.42045 89.6491L8.87224 89.4349L8.87224 89.4349L8.42045 89.6491ZM7.99432 89.1321L8.2796 88.7215L8.2796 88.7215L7.99432 89.1321ZM6.96875 89.0298L6.7565 88.577L6.748 88.5812L6.96875 89.0298ZM6.64773 89.277L6.27474 88.944L6.27144 88.9477L6.64773 89.277ZM6.40341 89.6548L6.85408 89.8714L6.85408 89.8714L6.40341 89.6548ZM6.21875 90.1378L5.73997 89.9936L5.73914 89.9965L6.21875 90.1378ZM6.03125 90.7741L6.50961 90.9197L6.51086 90.9155L6.03125 90.7741ZM5.80114 91.3764L5.34936 91.1622L5.34852 91.164L5.80114 91.3764ZM5.48864 91.8594L5.11489 91.5272L5.11011 91.5327L5.48864 91.8594ZM5.06818 92.1804L4.85527 91.728L4.85096 91.7301L5.06818 92.1804ZM3.6875 92.0582L3.96183 91.6402L3.95953 91.6387L3.6875 92.0582ZM3.11364 91.3849L2.66237 91.6003L2.66297 91.6015L3.11364 91.3849ZM3.09659 89.3793L2.64216 89.1707L2.64162 89.1719L3.09659 89.3793ZM3.625 88.723L3.33599 88.315L3.33438 88.3161L3.625 88.723ZM4.40909 88.4503H4.90909V87.9138L4.37392 87.9515L4.40909 88.4503ZM4.40909 88.8139L4.44834 89.3124L4.90909 89.2761V88.8139H4.40909ZM3.78409 89.044L3.48066 88.6466L3.47594 88.6503L3.78409 89.044ZM3.38068 89.5866L2.91972 89.393L2.91972 89.393L3.38068 89.5866ZM3.39773 91.1861L2.94081 91.3892L2.94217 91.3922L3.39773 91.1861ZM3.84659 91.7457L4.13414 91.3367L4.13414 91.3367L3.84659 91.7457ZM5.03977 91.8026L4.76367 91.3857L5.03977 91.8026ZM5.41761 91.3736L4.98241 91.1274L4.98136 91.1293L5.41761 91.3736ZM5.7017 90.6747L5.22296 90.5305L5.2227 90.5313L5.7017 90.6747ZM5.90625 89.9957L5.42789 89.8502L5.4275 89.8515L5.90625 89.9957ZM6.47159 88.9531L6.11803 88.5996L6.11664 88.601L6.47159 88.9531ZM8.15909 88.8338L7.87554 89.2456L7.87711 89.2467L8.15909 88.8338ZM8.70739 89.4815L9.15766 89.2642L9.15707 89.2629L8.70739 89.4815ZM8.70455 91.3281L8.25861 91.102L8.25733 91.1045L8.70455 91.3281ZM8.15625 91.9588L7.8789 91.5428L7.87733 91.5438L8.15625 91.9588ZM7.36364 92.2173H6.86364V92.7468L7.39225 92.7165L7.36364 92.2173ZM7.40538 92.3662C7.89261 92.3253 8.31031 92.1189 8.62379 91.747L7.85916 91.1025C7.72567 91.2609 7.55815 91.3499 7.3219 91.3696L7.40538 92.3662ZM8.62265 91.7483C8.93824 91.3765 9.0767 90.9129 9.0767 90.402H8.0767C8.0767 90.7282 7.99168 90.9464 7.8603 91.1011L8.62265 91.7483ZM9.0767 90.402C9.0767 90.0576 9.01287 89.7315 8.87224 89.4349L7.96866 89.8634C8.03637 90.0062 8.0767 90.182 8.0767 90.402H9.0767ZM8.87224 89.4349C8.73488 89.1452 8.53887 88.9016 8.2796 88.7215L7.70904 89.5427C7.80961 89.6126 7.8977 89.7137 7.96866 89.8634L8.87224 89.4349ZM8.2796 88.7215C8.01049 88.5345 7.70312 88.4446 7.375 88.4446V89.4446C7.51279 89.4446 7.6183 89.4797 7.70904 89.5427L8.2796 88.7215ZM7.375 88.4446C7.16072 88.4446 6.9516 88.4857 6.75653 88.5771L7.18097 89.4826C7.22832 89.4604 7.29004 89.4446 7.375 89.4446V88.4446ZM6.748 88.5812C6.56707 88.6702 6.40929 88.7933 6.27476 88.944L7.0207 89.61C7.07556 89.5486 7.13179 89.5069 7.1895 89.4785L6.748 88.5812ZM6.27144 88.9477C6.14484 89.0924 6.03957 89.2576 5.95274 89.4383L6.85408 89.8714C6.9074 89.7604 6.96501 89.6737 7.02402 89.6062L6.27144 88.9477ZM5.95274 89.4383C5.87003 89.6104 5.79949 89.796 5.73998 89.9936L6.69752 90.2819C6.74407 90.1273 6.79663 89.9909 6.85408 89.8714L5.95274 89.4383ZM5.73914 89.9965L5.55164 90.6328L6.51086 90.9155L6.69836 90.2791L5.73914 89.9965ZM5.55291 90.6286C5.49295 90.8256 5.42479 91.0031 5.34936 91.1622L6.25291 91.5907C6.35172 91.3823 6.43698 91.1583 6.50959 90.9197L5.55291 90.6286ZM5.34852 91.164C5.27932 91.3114 5.20055 91.4309 5.11493 91.5272L5.86234 92.1916C6.01914 92.0152 6.14871 91.8127 6.25376 91.5889L5.34852 91.164ZM5.11011 91.5327C5.03533 91.6193 4.95116 91.6829 4.85528 91.728L5.28108 92.6328C5.50718 92.5264 5.7033 92.3759 5.86716 92.186L5.11011 91.5327ZM4.85096 91.7301C4.76866 91.7697 4.65954 91.7969 4.51136 91.7969V92.7969C4.78365 92.7969 5.04573 92.7464 5.28541 92.6307L4.85096 91.7301ZM4.51136 91.7969C4.29607 91.7969 4.11792 91.7426 3.96183 91.6402L3.41317 92.4763C3.74193 92.692 4.11302 92.7969 4.51136 92.7969V91.7969ZM3.95953 91.6387C3.80314 91.5373 3.66958 91.3875 3.56431 91.1684L2.66297 91.6015C2.83799 91.9657 3.08702 92.2648 3.41547 92.4778L3.95953 91.6387ZM3.5649 91.1696C3.46517 90.9606 3.40625 90.6954 3.40625 90.3594H2.40625C2.40625 90.8113 2.48559 91.2297 2.66237 91.6003L3.5649 91.1696ZM3.40625 90.3594C3.40625 90.0401 3.46025 89.787 3.55156 89.5866L2.64162 89.1719C2.47914 89.5284 2.40625 89.9286 2.40625 90.3594H3.40625ZM3.55103 89.5878C3.64522 89.3825 3.76805 89.2353 3.91562 89.1299L3.33438 88.3161C3.03119 88.5327 2.80175 88.823 2.64216 89.1707L3.55103 89.5878ZM3.91401 89.131C4.06178 89.0264 4.23409 88.9639 4.44426 88.949L4.37392 87.9515C3.99318 87.9784 3.64276 88.0977 3.33599 88.315L3.91401 89.131ZM3.90909 88.4503V88.8139H4.90909V88.4503H3.90909ZM4.36984 88.3155C4.04224 88.3413 3.74009 88.4486 3.48068 88.6466L4.0875 89.4415C4.18036 89.3706 4.29488 89.3245 4.44834 89.3124L4.36984 88.3155ZM3.47594 88.6503C3.22767 88.8446 3.04391 89.0974 2.91972 89.393L3.84165 89.7803C3.90685 89.6251 3.99203 89.5162 4.09225 89.4378L3.47594 88.6503ZM2.91972 89.393C2.79494 89.6899 2.73864 90.0152 2.73864 90.3594H3.73864C3.73864 90.124 3.77702 89.9341 3.84165 89.7803L2.91972 89.393ZM2.73864 90.3594C2.73864 90.7283 2.80133 91.0753 2.94082 91.3891L3.85463 90.983C3.78201 90.8196 3.73864 90.6154 3.73864 90.3594H2.73864ZM2.94217 91.3922C3.08244 91.7022 3.28611 91.9629 3.55904 92.1548L4.13414 91.3367C4.02449 91.2596 3.92892 91.1472 3.85328 90.98L2.94217 91.3922ZM3.55904 92.1548C3.84179 92.3535 4.16673 92.4474 4.5142 92.4474L4.5142 91.4474C4.3541 91.4474 4.23397 91.4069 4.13414 91.3367L3.55904 92.1548ZM4.5142 92.4474C4.79995 92.4474 5.07506 92.3789 5.31587 92.2194L4.76367 91.3857C4.71282 91.4194 4.63755 91.4474 4.5142 91.4474L4.5142 92.4474ZM5.31587 92.2194C5.54215 92.0695 5.71811 91.8603 5.85387 91.6179L4.98136 91.1293C4.90499 91.2656 4.82906 91.3424 4.76367 91.3857L5.31587 92.2194ZM5.85281 91.6198C5.98238 91.3907 6.09011 91.1208 6.18071 90.8181L5.2227 90.5313C5.14663 90.7855 5.06497 90.9815 4.98241 91.1274L5.85281 91.6198ZM6.18045 90.8189L6.385 90.14L5.4275 89.8515L5.22296 90.5305L6.18045 90.8189ZM6.38461 90.1412C6.50816 89.7351 6.66364 89.4695 6.82654 89.3053L6.11664 88.601C5.80226 88.9178 5.58086 89.3473 5.42789 89.8502L6.38461 90.1412ZM6.82514 89.3067C6.96443 89.1674 7.13207 89.0952 7.36364 89.0952V88.0952C6.88308 88.0952 6.45603 88.2616 6.11804 88.5996L6.82514 89.3067ZM7.36364 89.0952C7.56873 89.0952 7.73356 89.1479 7.87554 89.2456L8.44264 88.422C8.1225 88.2016 7.75703 88.0952 7.36364 88.0952V89.0952ZM7.87711 89.2467C8.03284 89.3531 8.16022 89.4996 8.2577 89.7001L9.15707 89.2629C8.9894 88.918 8.75125 88.6327 8.44107 88.4209L7.87711 89.2467ZM8.25711 89.6989C8.35293 89.8974 8.40625 90.1312 8.40625 90.4105H9.40625C9.40625 90.0004 9.327 89.6149 9.15766 89.2642L8.25711 89.6989ZM8.40625 90.4105C8.40625 90.6915 8.35208 90.9177 8.25861 91.102L9.15048 91.5543C9.32595 91.2083 9.40625 90.8227 9.40625 90.4105H8.40625ZM8.25733 91.1045C8.1613 91.2966 8.03516 91.4386 7.8789 91.5428L8.4336 92.3748C8.74325 92.1684 8.98264 91.89 9.15176 91.5517L8.25733 91.1045ZM7.87733 91.5438C7.72586 91.6456 7.54938 91.7059 7.33502 91.7181L7.39225 92.7165C7.77259 92.6947 8.12452 92.5826 8.43517 92.3738L7.87733 91.5438ZM7.86364 92.2173V91.8679H6.86364V92.2173H7.86364ZM3 93.7003V93.2003H2.5V93.7003H3ZM8.81818 93.7003H9.31818V93.2003H8.81818V93.7003ZM8.81818 94.0554V94.5554H9.31818V94.0554H8.81818ZM6.0767 94.0554V93.5554H5.5767V94.0554H6.0767ZM6.0767 97.5611H5.5767V98.0611H6.0767V97.5611ZM8.81818 97.5611H9.31818V97.0611H8.81818V97.5611ZM8.81818 97.9162V98.4162H9.31818V97.9162H8.81818ZM3 97.9162H2.5V98.4162H3V97.9162ZM3 97.5611V97.0611H2.5V97.5611H3ZM5.74716 97.5611V98.0611H6.24716V97.5611H5.74716ZM5.74716 94.0554H6.24716V93.5554H5.74716V94.0554ZM3 94.0554H2.5V94.5554H3V94.0554ZM3 94.2003H8.81818V93.2003H3V94.2003ZM8.31818 93.7003V94.0554H9.31818V93.7003H8.31818ZM8.81818 93.5554H6.0767V94.5554H8.81818V93.5554ZM5.5767 94.0554L5.5767 97.5611H6.5767L6.5767 94.0554H5.5767ZM6.0767 98.0611H8.81818V97.0611H6.0767V98.0611ZM8.31818 97.5611V97.9162H9.31818V97.5611H8.31818ZM8.81818 97.4162H3V98.4162H8.81818V97.4162ZM3.5 97.9162V97.5611H2.5V97.9162H3.5ZM3 98.0611H5.74716V97.0611H3V98.0611ZM6.24716 97.5611L6.24716 94.0554H5.24716L5.24716 97.5611H6.24716ZM5.74716 93.5554H3V94.5554H5.74716V93.5554ZM3.5 94.0554V93.7003H2.5V94.0554H3.5Z"
    fill="#42FF00"
    fill-opacity="0.5"
    mask="url(#path-39-outside-2_10_48)"
  />
</svg>