<svg width="1021" height="627" viewBox="0 0 1021 627" fill="none" xmlns="http://www.w3.org/2000/svg">
  <g filter="url(#filter0_d_13_44)">
  <path d="M142.705 251.731L118.205 171.231C95.3714 171.731 50.6047 184.931 54.2047 233.731L80.7047 334.231" stroke="#CD37FF" stroke-width="7"/>
  </g>
  <g filter="url(#filter1_d_13_44)">
  <path d="M91.2047 365.731L137.205 505.731C143.205 520.898 169.605 550.831 227.205 549.231L726.205 567.231" stroke="#CD37FF" stroke-width="7"/>
  </g>
  <g filter="url(#filter2_d_13_44)">
  <path d="M760.205 459.231L751.705 569.732C801.871 578.565 905.005 577.531 916.205 502.731L967.205 134.231C971.205 69.2314 933.205 35.7315 806.205 64.2314" stroke="#CD37FF" stroke-width="7"/>
  </g>
  <g filter="url(#filter3_d_13_44)">
  <path d="M807.705 64.2314L413.705 120.231" stroke="#CD37FF" stroke-width="7"/>
  </g>
  <g filter="url(#filter4_d_13_44)">
  <path d="M153.205 158.231L378.205 124.731" stroke="#CD37FF" stroke-width="7"/>
  </g>
  <g filter="url(#filter5_d_13_44)">
  <path d="M769.705 551.731C799.871 558.398 867.905 558.931 898.705 507.731L949.705 137.731C957.538 105.398 941.505 47.6315 814.705 75.2315L229.205 163.731" stroke="#29B1DC" stroke-width="7"/>
  </g>
  <g filter="url(#filter6_d_13_44)">
  <path d="M108.205 188.731C95.5381 192.231 70.2047 205.431 70.2047 230.231L152.205 498.731C156.038 509.565 173.705 531.731 213.705 533.731L507.705 545.731" stroke="#29B1DC" stroke-width="7"/>
  </g>
  <g filter="url(#filter7_d_13_44)">
  <path d="M535.205 545.731L682.205 552.731" stroke="#29B1DC" stroke-width="7"/>
  </g>
  <g filter="url(#filter8_d_13_44)">
  <mask id="path-9-outside-1_13_44" maskUnits="userSpaceOnUse" x="277.705" y="203.731" width="465" height="114" fill="black">
  <rect fill="white" x="277.705" y="203.731" width="465" height="114"/>
  <path d="M287.659 311.731H284.279L320.671 209.913H325.046L361.438 311.731H358.057L323.057 213.891H322.659L287.659 311.731ZM299.193 274.146H346.523V277.328H299.193V274.146ZM436.372 235.368C435.875 228.408 433.207 222.69 428.368 218.216C423.562 213.741 417.215 211.504 409.327 211.504C404.156 211.504 399.532 212.498 395.456 214.487C391.379 216.476 388.164 219.21 385.811 222.69C383.458 226.137 382.281 230.098 382.281 234.572C382.281 237.158 382.712 239.544 383.574 241.731C384.435 243.919 385.745 245.924 387.501 247.747C389.291 249.537 391.528 251.161 394.213 252.619C396.931 254.044 400.113 255.32 403.758 256.447L415.292 260.027C419.701 261.386 423.512 262.91 426.727 264.601C429.942 266.291 432.594 268.197 434.682 270.318C436.803 272.406 438.377 274.743 439.405 277.328C440.432 279.88 440.946 282.73 440.946 285.879C440.946 291.182 439.587 295.905 436.869 300.048C434.151 304.191 430.356 307.439 425.484 309.793C420.612 312.146 414.961 313.322 408.531 313.322C402.333 313.322 396.914 312.245 392.274 310.091C387.634 307.903 383.955 304.904 381.237 301.092C378.552 297.248 377.044 292.839 376.713 287.868H379.895C380.226 292.243 381.602 296.104 384.021 299.452C386.441 302.799 389.722 305.418 393.865 307.307C398.041 309.196 402.93 310.141 408.531 310.141C414.364 310.141 419.469 309.13 423.844 307.108C428.252 305.053 431.666 302.203 434.085 298.557C436.538 294.911 437.764 290.685 437.764 285.879C437.764 282.233 436.969 279.035 435.378 276.284C433.787 273.5 431.284 271.047 427.871 268.926C424.457 266.805 419.999 264.899 414.497 263.209L402.963 259.629C394.975 257.11 388.993 253.779 385.015 249.636C381.071 245.493 379.099 240.472 379.099 234.572C379.099 229.568 380.408 225.093 383.027 221.149C385.645 217.172 389.225 214.04 393.765 211.753C398.339 209.466 403.526 208.322 409.327 208.322C415.16 208.322 420.281 209.482 424.689 211.802C429.097 214.123 432.594 217.321 435.179 221.398C437.764 225.474 439.222 230.131 439.554 235.368H436.372ZM456.47 209.913H460.447L494.453 259.828H494.85L528.856 209.913H532.833L496.242 263.408V311.731H493.061V263.408L456.47 209.913ZM629.829 209.913V311.731H626.647L557.045 215.879H556.647V311.731H553.465V209.913H556.647L626.249 305.766H626.647V209.913H629.829ZM736.979 241.731H733.599C732.969 238.351 731.742 234.904 729.92 231.391C728.097 227.877 725.677 224.629 722.661 221.646C719.645 218.663 716.082 216.26 711.972 214.437C707.862 212.614 703.206 211.703 698.002 211.703C691.042 211.703 684.595 213.609 678.662 217.42C672.763 221.199 668.007 226.75 664.394 234.075C660.814 241.367 659.025 250.283 659.025 260.822C659.025 271.495 660.814 280.477 664.394 287.768C668.007 295.06 672.763 300.579 678.662 304.324C684.595 308.069 691.042 309.942 698.002 309.942C703.206 309.942 707.862 309.047 711.972 307.257C716.082 305.434 719.645 303.048 722.661 300.098C725.677 297.115 728.097 293.867 729.92 290.354C731.742 286.807 732.969 283.327 733.599 279.913H736.979C736.349 283.493 735.09 287.222 733.201 291.099C731.312 294.944 728.76 298.54 725.545 301.888C722.33 305.235 718.435 307.953 713.861 310.041C709.287 312.096 704.001 313.123 698.002 313.123C689.65 313.123 682.308 310.936 675.978 306.561C669.647 302.186 664.709 296.071 661.162 288.216C657.616 280.361 655.843 271.23 655.843 260.822C655.843 250.415 657.616 241.284 661.162 233.429C664.709 225.574 669.647 219.459 675.978 215.084C682.308 210.709 689.65 208.521 698.002 208.521C704.001 208.521 709.287 209.549 713.861 211.604C718.435 213.659 722.33 216.36 725.545 219.707C728.76 223.022 731.312 226.618 733.201 230.496C735.09 234.34 736.349 238.086 736.979 241.731Z"/>
  </mask>
  <path d="M287.659 311.731H284.279L320.671 209.913H325.046L361.438 311.731H358.057L323.057 213.891H322.659L287.659 311.731ZM299.193 274.146H346.523V277.328H299.193V274.146ZM436.372 235.368C435.875 228.408 433.207 222.69 428.368 218.216C423.562 213.741 417.215 211.504 409.327 211.504C404.156 211.504 399.532 212.498 395.456 214.487C391.379 216.476 388.164 219.21 385.811 222.69C383.458 226.137 382.281 230.098 382.281 234.572C382.281 237.158 382.712 239.544 383.574 241.731C384.435 243.919 385.745 245.924 387.501 247.747C389.291 249.537 391.528 251.161 394.213 252.619C396.931 254.044 400.113 255.32 403.758 256.447L415.292 260.027C419.701 261.386 423.512 262.91 426.727 264.601C429.942 266.291 432.594 268.197 434.682 270.318C436.803 272.406 438.377 274.743 439.405 277.328C440.432 279.88 440.946 282.73 440.946 285.879C440.946 291.182 439.587 295.905 436.869 300.048C434.151 304.191 430.356 307.439 425.484 309.793C420.612 312.146 414.961 313.322 408.531 313.322C402.333 313.322 396.914 312.245 392.274 310.091C387.634 307.903 383.955 304.904 381.237 301.092C378.552 297.248 377.044 292.839 376.713 287.868H379.895C380.226 292.243 381.602 296.104 384.021 299.452C386.441 302.799 389.722 305.418 393.865 307.307C398.041 309.196 402.93 310.141 408.531 310.141C414.364 310.141 419.469 309.13 423.844 307.108C428.252 305.053 431.666 302.203 434.085 298.557C436.538 294.911 437.764 290.685 437.764 285.879C437.764 282.233 436.969 279.035 435.378 276.284C433.787 273.5 431.284 271.047 427.871 268.926C424.457 266.805 419.999 264.899 414.497 263.209L402.963 259.629C394.975 257.11 388.993 253.779 385.015 249.636C381.071 245.493 379.099 240.472 379.099 234.572C379.099 229.568 380.408 225.093 383.027 221.149C385.645 217.172 389.225 214.04 393.765 211.753C398.339 209.466 403.526 208.322 409.327 208.322C415.16 208.322 420.281 209.482 424.689 211.802C429.097 214.123 432.594 217.321 435.179 221.398C437.764 225.474 439.222 230.131 439.554 235.368H436.372ZM456.47 209.913H460.447L494.453 259.828H494.85L528.856 209.913H532.833L496.242 263.408V311.731H493.061V263.408L456.47 209.913ZM629.829 209.913V311.731H626.647L557.045 215.879H556.647V311.731H553.465V209.913H556.647L626.249 305.766H626.647V209.913H629.829ZM736.979 241.731H733.599C732.969 238.351 731.742 234.904 729.92 231.391C728.097 227.877 725.677 224.629 722.661 221.646C719.645 218.663 716.082 216.26 711.972 214.437C707.862 212.614 703.206 211.703 698.002 211.703C691.042 211.703 684.595 213.609 678.662 217.42C672.763 221.199 668.007 226.75 664.394 234.075C660.814 241.367 659.025 250.283 659.025 260.822C659.025 271.495 660.814 280.477 664.394 287.768C668.007 295.06 672.763 300.579 678.662 304.324C684.595 308.069 691.042 309.942 698.002 309.942C703.206 309.942 707.862 309.047 711.972 307.257C716.082 305.434 719.645 303.048 722.661 300.098C725.677 297.115 728.097 293.867 729.92 290.354C731.742 286.807 732.969 283.327 733.599 279.913H736.979C736.349 283.493 735.09 287.222 733.201 291.099C731.312 294.944 728.76 298.54 725.545 301.888C722.33 305.235 718.435 307.953 713.861 310.041C709.287 312.096 704.001 313.123 698.002 313.123C689.65 313.123 682.308 310.936 675.978 306.561C669.647 302.186 664.709 296.071 661.162 288.216C657.616 280.361 655.843 271.23 655.843 260.822C655.843 250.415 657.616 241.284 661.162 233.429C664.709 225.574 669.647 219.459 675.978 215.084C682.308 210.709 689.65 208.521 698.002 208.521C704.001 208.521 709.287 209.549 713.861 211.604C718.435 213.659 722.33 216.36 725.545 219.707C728.76 223.022 731.312 226.618 733.201 230.496C735.09 234.34 736.349 238.086 736.979 241.731Z" fill="white"/>
  <path d="M287.659 311.731V315.731H290.477L291.426 313.079L287.659 311.731ZM284.279 311.731L280.512 310.385L278.601 315.731H284.279V311.731ZM320.671 209.913V205.913H317.852L316.904 208.567L320.671 209.913ZM325.046 209.913L328.812 208.567L327.864 205.913H325.046V209.913ZM361.438 311.731V315.731H367.115L365.204 310.385L361.438 311.731ZM358.057 311.731L354.291 313.079L355.24 315.731H358.057V311.731ZM323.057 213.891L326.823 212.543L325.874 209.891H323.057V213.891ZM322.659 213.891V209.891H319.842L318.893 212.543L322.659 213.891ZM299.193 274.146V270.146H295.193V274.146H299.193ZM346.523 274.146H350.523V270.146H346.523V274.146ZM346.523 277.328V281.328H350.523V277.328H346.523ZM299.193 277.328H295.193V281.328H299.193V277.328ZM287.659 307.731H284.279V315.731H287.659V307.731ZM288.045 313.078L324.437 211.26L316.904 208.567L280.512 310.385L288.045 313.078ZM320.671 213.913H325.046V205.913H320.671V213.913ZM321.279 211.26L357.671 313.078L365.204 310.385L328.812 208.567L321.279 211.26ZM361.438 307.731H358.057V315.731H361.438V307.731ZM361.823 310.384L326.823 212.543L319.291 215.238L354.291 313.079L361.823 310.384ZM323.057 209.891H322.659V217.891H323.057V209.891ZM318.893 212.543L283.893 310.384L291.426 313.079L326.426 215.238L318.893 212.543ZM299.193 278.146H346.523V270.146H299.193V278.146ZM342.523 274.146V277.328H350.523V274.146H342.523ZM346.523 273.328H299.193V281.328H346.523V273.328ZM303.193 277.328V274.146H295.193V277.328H303.193ZM436.372 235.368L432.382 235.653L432.647 239.368H436.372V235.368ZM428.368 218.216L425.642 221.143L425.652 221.153L428.368 218.216ZM395.456 214.487L393.702 210.892L393.702 210.892L395.456 214.487ZM385.811 222.69L389.114 224.946L389.119 224.938L389.124 224.931L385.811 222.69ZM383.574 241.731L387.295 240.265L387.295 240.265L383.574 241.731ZM387.501 247.747L384.621 250.523L384.647 250.549L384.673 250.575L387.501 247.747ZM394.213 252.619L392.304 256.134L392.329 256.148L392.355 256.162L394.213 252.619ZM403.758 256.447L404.944 252.627L404.94 252.626L403.758 256.447ZM415.292 260.027L414.107 263.847L414.114 263.849L415.292 260.027ZM426.727 264.601L428.589 261.06L428.589 261.06L426.727 264.601ZM434.682 270.318L431.831 273.124L431.853 273.147L431.876 273.169L434.682 270.318ZM439.405 277.328L435.687 278.805L435.691 278.814L435.694 278.822L439.405 277.328ZM436.869 300.048L433.525 297.854L433.525 297.854L436.869 300.048ZM425.484 309.793L423.745 306.191L423.745 306.191L425.484 309.793ZM392.274 310.091L390.568 313.709L390.579 313.714L390.59 313.719L392.274 310.091ZM381.237 301.092L377.957 303.382L377.969 303.398L377.98 303.415L381.237 301.092ZM376.713 287.868V283.868H372.437L372.722 288.134L376.713 287.868ZM379.895 287.868L383.883 287.566L383.603 283.868H379.895V287.868ZM384.021 299.452L380.779 301.795L380.779 301.795L384.021 299.452ZM393.865 307.307L392.205 310.946L392.216 310.951L393.865 307.307ZM423.844 307.108L425.522 310.739L425.534 310.733L423.844 307.108ZM434.085 298.557L430.766 296.324L430.759 296.334L430.752 296.345L434.085 298.557ZM435.378 276.284L431.905 278.269L431.91 278.278L431.915 278.287L435.378 276.284ZM427.871 268.926L429.982 265.529L429.982 265.529L427.871 268.926ZM414.497 263.209L413.311 267.029L413.322 267.032L414.497 263.209ZM402.963 259.629L401.76 263.444L401.769 263.447L401.777 263.449L402.963 259.629ZM385.015 249.636L382.118 252.394L382.124 252.4L382.13 252.406L385.015 249.636ZM383.027 221.149L386.359 223.361L386.364 223.355L386.368 223.349L383.027 221.149ZM393.765 211.753L391.977 208.175L391.966 208.18L393.765 211.753ZM435.179 221.398L431.801 223.54L431.801 223.54L435.179 221.398ZM439.554 235.368V239.368H443.815L443.546 235.115L439.554 235.368ZM440.362 235.083C439.797 227.174 436.715 220.487 431.083 215.279L425.652 221.153C429.698 224.894 431.953 229.641 432.382 235.653L440.362 235.083ZM431.093 215.288C425.403 209.991 418.011 207.504 409.327 207.504V215.504C416.419 215.504 421.72 217.492 425.642 221.143L431.093 215.288ZM409.327 207.504C403.634 207.504 398.397 208.602 393.702 210.892L397.209 218.082C400.668 216.395 404.678 215.504 409.327 215.504V207.504ZM393.702 210.892C389.048 213.163 385.274 216.343 382.497 220.45L389.124 224.931C391.054 222.077 393.711 219.789 397.209 218.082L393.702 210.892ZM382.507 220.435C379.667 224.595 378.281 229.354 378.281 234.572H386.281C386.281 230.842 387.248 227.679 389.114 224.946L382.507 220.435ZM378.281 234.572C378.281 237.609 378.789 240.499 379.852 243.198L387.295 240.265C386.635 238.589 386.281 236.706 386.281 234.572H378.281ZM379.852 243.198C380.92 245.909 382.529 248.352 384.621 250.523L390.382 244.971C388.96 243.497 387.951 241.929 387.295 240.265L379.852 243.198ZM384.673 250.575C386.784 252.686 389.349 254.529 392.304 256.134L396.122 249.104C393.708 247.793 391.798 246.387 390.33 244.919L384.673 250.575ZM392.355 256.162C395.334 257.724 398.752 259.087 402.577 260.269L404.94 252.626C401.473 251.554 398.527 250.365 396.071 249.077L392.355 256.162ZM402.573 260.268L414.107 263.847L416.478 256.207L404.944 252.627L402.573 260.268ZM414.114 263.849C418.346 265.154 421.918 266.592 424.866 268.141L428.589 261.06C425.106 259.229 421.055 257.618 416.471 256.204L414.114 263.849ZM424.866 268.141C427.792 269.68 430.088 271.354 431.831 273.124L437.532 267.512C435.099 265.04 432.092 262.902 428.589 261.06L424.866 268.141ZM431.876 273.169C433.629 274.895 434.879 276.772 435.687 278.805L443.122 275.851C441.875 272.714 439.977 269.917 437.488 267.467L431.876 273.169ZM435.694 278.822C436.505 280.836 436.946 283.169 436.946 285.879H444.946C444.946 282.292 444.359 278.925 443.115 275.834L435.694 278.822ZM436.946 285.879C436.946 290.46 435.784 294.409 433.525 297.854L440.214 302.242C443.39 297.401 444.946 291.904 444.946 285.879H436.946ZM433.525 297.854C431.24 301.336 428.026 304.123 423.745 306.191L427.224 313.394C432.687 310.756 437.062 307.046 440.214 302.242L433.525 297.854ZM423.745 306.191C419.508 308.237 414.471 309.322 408.531 309.322V317.322C415.451 317.322 421.716 316.054 427.224 313.394L423.745 306.191ZM408.531 309.322C402.794 309.322 397.971 308.326 393.958 306.463L390.59 313.719C395.857 316.164 401.872 317.322 408.531 317.322V309.322ZM393.98 306.473C389.898 304.549 386.777 301.972 384.494 298.77L377.98 303.415C381.133 307.836 385.37 311.258 390.568 313.709L393.98 306.473ZM384.517 298.802C382.275 295.593 380.99 291.894 380.704 287.602L372.722 288.134C373.098 293.785 374.829 298.903 377.957 303.382L384.517 298.802ZM376.713 291.868H379.895V283.868H376.713V291.868ZM375.906 288.17C376.29 293.233 377.9 297.811 380.779 301.795L387.263 297.108C385.303 294.397 384.163 291.252 383.883 287.566L375.906 288.17ZM380.779 301.795C383.646 305.76 387.498 308.8 392.205 310.946L395.524 303.667C391.946 302.036 389.236 299.838 387.263 297.108L380.779 301.795ZM392.216 310.951C397.012 313.121 402.485 314.141 408.531 314.141V306.141C403.375 306.141 399.07 305.271 395.514 303.662L392.216 310.951ZM408.531 314.141C414.824 314.141 420.522 313.049 425.522 310.739L422.166 303.477C418.415 305.21 413.905 306.141 408.531 306.141V314.141ZM425.534 310.733C430.532 308.403 434.547 305.095 437.418 300.769L430.752 296.345C428.784 299.311 425.971 301.703 422.154 303.482L425.534 310.733ZM437.404 300.789C440.342 296.422 441.764 291.403 441.764 285.879H433.764C433.764 289.967 432.733 293.4 430.766 296.324L437.404 300.789ZM441.764 285.879C441.764 281.635 440.832 277.726 438.84 274.281L431.915 278.287C433.105 280.344 433.764 282.831 433.764 285.879H441.764ZM438.851 274.299C436.857 270.81 433.819 267.913 429.982 265.529L425.759 272.324C428.749 274.181 430.717 276.189 431.905 278.269L438.851 274.299ZM429.982 265.529C426.179 263.166 421.374 261.137 415.672 259.385L413.322 267.032C418.624 268.661 422.734 270.444 425.759 272.324L429.982 265.529ZM415.683 259.388L404.148 255.809L401.777 263.449L413.311 267.029L415.683 259.388ZM404.166 255.814C396.545 253.411 391.249 250.354 387.901 246.866L382.13 252.406C386.736 257.205 393.406 260.809 401.76 263.444L404.166 255.814ZM387.913 246.878C384.701 243.504 383.099 239.481 383.099 234.572H375.099C375.099 241.463 377.442 247.482 382.118 252.394L387.913 246.878ZM383.099 234.572C383.099 230.307 384.202 226.611 386.359 223.361L379.694 218.937C376.615 223.575 375.099 228.828 375.099 234.572H383.099ZM386.368 223.349C388.575 219.996 391.605 217.319 395.565 215.325L391.966 208.18C386.844 210.76 382.715 214.348 379.686 218.95L386.368 223.349ZM395.554 215.33C399.502 213.356 404.063 212.322 409.327 212.322V204.322C402.989 204.322 397.176 205.575 391.977 208.175L395.554 215.33ZM409.327 212.322C414.622 212.322 419.083 213.372 422.826 215.342L426.552 208.263C421.478 205.593 415.698 204.322 409.327 204.322V212.322ZM422.826 215.342C426.636 217.348 429.602 220.073 431.801 223.54L438.557 219.255C435.585 214.569 431.558 210.897 426.552 208.263L422.826 215.342ZM431.801 223.54C433.995 227 435.269 230.995 435.562 235.62L443.546 235.115C443.176 229.267 441.533 223.949 438.557 219.255L431.801 223.54ZM439.554 231.368H436.372V239.368H439.554V231.368ZM456.47 209.913V205.913H448.887L453.168 212.172L456.47 209.913ZM460.447 209.913L463.753 207.661L462.562 205.913H460.447V209.913ZM494.453 259.828L491.147 262.08L492.338 263.828H494.453V259.828ZM494.85 259.828V263.828H496.965L498.156 262.08L494.85 259.828ZM528.856 209.913V205.913H526.741L525.55 207.661L528.856 209.913ZM532.833 209.913L536.135 212.172L540.416 205.913H532.833V209.913ZM496.242 263.408L492.941 261.149L492.242 262.17V263.408H496.242ZM496.242 311.731V315.731H500.242V311.731H496.242ZM493.061 311.731H489.061V315.731H493.061V311.731ZM493.061 263.408H497.061V262.17L496.362 261.149L493.061 263.408ZM456.47 213.913H460.447V205.913H456.47V213.913ZM457.141 212.165L491.147 262.08L497.758 257.576L463.753 207.661L457.141 212.165ZM494.453 263.828H494.85V255.828H494.453V263.828ZM498.156 262.08L532.162 212.165L525.55 207.661L491.545 257.576L498.156 262.08ZM528.856 213.913H532.833V205.913H528.856V213.913ZM529.532 207.655L492.941 261.149L499.544 265.666L536.135 212.172L529.532 207.655ZM492.242 263.408V311.731H500.242V263.408H492.242ZM496.242 307.731H493.061V315.731H496.242V307.731ZM497.061 311.731V263.408H489.061V311.731H497.061ZM496.362 261.149L459.771 207.655L453.168 212.172L489.759 265.666L496.362 261.149ZM629.829 209.913H633.829V205.913H629.829V209.913ZM629.829 311.731V315.731H633.829V311.731H629.829ZM626.647 311.731L623.41 314.082L624.608 315.731H626.647V311.731ZM557.045 215.879L560.282 213.529L559.084 211.879H557.045V215.879ZM556.647 215.879V211.879H552.647V215.879H556.647ZM556.647 311.731V315.731H560.647V311.731H556.647ZM553.465 311.731H549.465V315.731H553.465V311.731ZM553.465 209.913V205.913H549.465V209.913H553.465ZM556.647 209.913L559.884 207.563L558.686 205.913H556.647V209.913ZM626.249 305.766L623.013 308.116L624.211 309.766H626.249V305.766ZM626.647 305.766V309.766H630.647V305.766H626.647ZM626.647 209.913V205.913H622.647V209.913H626.647ZM625.829 209.913V311.731H633.829V209.913H625.829ZM629.829 307.731H626.647V315.731H629.829V307.731ZM629.884 309.381L560.282 213.529L553.808 218.229L623.41 314.082L629.884 309.381ZM557.045 211.879H556.647V219.879H557.045V211.879ZM552.647 215.879V311.731H560.647V215.879H552.647ZM556.647 307.731H553.465V315.731H556.647V307.731ZM557.465 311.731V209.913H549.465V311.731H557.465ZM553.465 213.913H556.647V205.913H553.465V213.913ZM553.41 212.264L623.013 308.116L629.486 303.415L559.884 207.563L553.41 212.264ZM626.249 309.766H626.647V301.766H626.249V309.766ZM630.647 305.766V209.913H622.647V305.766H630.647ZM626.647 213.913H629.829V205.913H626.647V213.913ZM736.979 241.731V245.731H741.729L740.921 241.051L736.979 241.731ZM733.599 241.731L729.666 242.464L730.275 245.731H733.599V241.731ZM729.92 231.391L726.369 233.233L726.369 233.233L729.92 231.391ZM722.661 221.646L725.474 218.802L725.474 218.802L722.661 221.646ZM711.972 214.437L713.594 210.781L713.594 210.781L711.972 214.437ZM678.662 217.42L680.82 220.789L680.825 220.786L678.662 217.42ZM664.394 234.075L660.807 232.306L660.803 232.313L664.394 234.075ZM664.394 287.768L660.803 289.531L660.807 289.538L660.81 289.544L664.394 287.768ZM678.662 304.324L676.519 307.701L676.527 307.706L678.662 304.324ZM711.972 307.257L713.569 310.924L713.582 310.919L713.594 310.913L711.972 307.257ZM722.661 300.098L725.458 302.958L725.466 302.95L725.474 302.942L722.661 300.098ZM729.92 290.354L733.47 292.196L733.474 292.189L733.477 292.182L729.92 290.354ZM733.599 279.913V275.913H730.269L729.665 279.188L733.599 279.913ZM736.979 279.913L740.919 280.606L741.744 275.913H736.979V279.913ZM733.201 291.099L736.791 292.863L736.797 292.851L733.201 291.099ZM725.545 301.888L722.66 299.117L722.66 299.117L725.545 301.888ZM713.861 310.041L715.501 313.69L715.512 313.685L715.522 313.68L713.861 310.041ZM675.978 306.561L678.252 303.27L678.252 303.27L675.978 306.561ZM661.162 288.216L657.517 289.862L657.517 289.862L661.162 288.216ZM675.978 215.084L678.252 218.374L678.252 218.374L675.978 215.084ZM713.861 211.604L712.222 215.252L713.861 211.604ZM725.545 219.707L722.66 222.478L722.666 222.485L722.673 222.492L725.545 219.707ZM733.201 230.496L729.605 232.248L729.611 232.26L733.201 230.496ZM736.979 237.731H733.599V245.731H736.979V237.731ZM737.531 240.999C736.819 237.178 735.447 233.359 733.47 229.548L726.369 233.233C728.038 236.448 729.118 239.523 729.666 242.464L737.531 240.999ZM733.47 229.548C731.442 225.639 728.765 222.058 725.474 218.802L719.848 224.49C722.589 227.201 724.752 230.116 726.369 233.233L733.47 229.548ZM725.474 218.802C722.093 215.459 718.12 212.788 713.594 210.781L710.35 218.094C714.044 219.732 717.197 221.868 719.848 224.49L725.474 218.802ZM713.594 210.781C708.899 208.699 703.677 207.703 698.002 207.703V215.703C702.734 215.703 706.825 216.53 710.35 218.094L713.594 210.781ZM698.002 207.703C690.264 207.703 683.069 209.835 676.5 214.055L680.825 220.786C686.121 217.383 691.819 215.703 698.002 215.703V207.703ZM676.505 214.052C669.897 218.284 664.687 224.438 660.807 232.306L667.981 235.845C671.326 229.063 675.629 224.113 680.82 220.789L676.505 214.052ZM660.803 232.313C656.887 240.291 655.025 249.847 655.025 260.822H663.025C663.025 250.718 664.742 242.443 667.985 235.838L660.803 232.313ZM655.025 260.822C655.025 271.922 656.884 281.547 660.803 289.531L667.985 286.006C664.745 279.407 663.025 271.068 663.025 260.822H655.025ZM660.81 289.544C664.693 297.382 669.906 303.503 676.519 307.701L680.806 300.947C675.62 297.654 671.32 292.738 667.978 285.993L660.81 289.544ZM676.527 307.706C683.094 311.851 690.28 313.942 698.002 313.942V305.942C691.804 305.942 686.097 304.287 680.798 300.941L676.527 307.706ZM698.002 313.942C703.668 313.942 708.881 312.966 713.569 310.924L710.375 303.59C706.844 305.128 702.744 305.942 698.002 305.942V313.942ZM713.594 310.913C718.111 308.91 722.079 306.262 725.458 302.958L719.864 297.238C717.211 299.833 714.053 301.958 710.35 303.601L713.594 310.913ZM725.474 302.942C728.765 299.687 731.442 296.105 733.47 292.196L726.369 288.511C724.752 291.629 722.589 294.543 719.848 297.254L725.474 302.942ZM733.477 292.182C735.453 288.339 736.822 284.489 737.532 280.639L729.665 279.188C729.116 282.165 728.032 285.275 726.362 288.525L733.477 292.182ZM733.599 283.913H736.979V275.913H733.599V283.913ZM733.04 279.22C732.485 282.372 731.36 285.744 729.605 289.347L736.797 292.851C738.82 288.699 740.214 284.614 740.919 280.606L733.04 279.22ZM729.611 289.335C727.918 292.781 725.613 296.042 722.66 299.117L728.43 304.658C731.906 301.038 734.705 297.108 736.791 292.863L729.611 289.335ZM722.66 299.117C719.822 302.071 716.353 304.506 712.2 306.402L715.522 313.68C720.517 311.4 724.837 308.399 728.43 304.658L722.66 299.117ZM712.222 306.392C708.255 308.175 703.545 309.123 698.002 309.123V317.123C704.457 317.123 710.32 316.017 715.501 313.69L712.222 306.392ZM698.002 309.123C690.389 309.123 683.857 307.144 678.252 303.27L673.704 309.852C680.76 314.728 688.91 317.123 698.002 317.123V309.123ZM678.252 303.27C672.589 299.357 668.092 293.844 664.808 286.57L657.517 289.862C661.326 298.298 666.705 305.015 673.704 309.852L678.252 303.27ZM664.808 286.57C661.539 279.328 659.843 270.778 659.843 260.822H651.843C651.843 271.682 653.694 281.393 657.517 289.862L664.808 286.57ZM659.843 260.822C659.843 250.867 661.539 242.317 664.808 235.075L657.517 231.783C653.694 240.251 651.843 249.963 651.843 260.822H659.843ZM664.808 235.075C668.092 227.801 672.589 222.288 678.252 218.374L673.704 211.793C666.705 216.63 661.326 223.347 657.517 231.783L664.808 235.075ZM678.252 218.374C683.857 214.501 690.389 212.521 698.002 212.521V204.521C688.91 204.521 680.76 206.916 673.704 211.793L678.252 218.374ZM698.002 212.521C703.545 212.521 708.255 213.47 712.222 215.252L715.501 207.955C710.32 205.628 704.457 204.521 698.002 204.521V212.521ZM712.222 215.252C716.366 217.114 719.827 219.529 722.66 222.478L728.43 216.937C724.832 213.19 720.504 210.203 715.501 207.955L712.222 215.252ZM722.673 222.492C725.614 225.524 727.914 228.776 729.605 232.248L736.797 228.744C734.71 224.459 731.905 220.519 728.416 216.922L722.673 222.492ZM729.611 232.26C731.358 235.815 732.482 239.196 733.038 242.412L740.921 241.051C740.217 236.975 738.822 232.866 736.791 228.732L729.611 232.26Z" fill="#CD37FF" mask="url(#path-9-outside-1_13_44)"/>
  </g>
  <g filter="url(#filter9_d_13_44)">
  <mask id="path-11-outside-2_13_44" maskUnits="userSpaceOnUse" x="357.705" y="345.731" width="334" height="114" fill="black">
  <rect fill="white" x="357.705" y="345.731" width="334" height="114"/>
  <path d="M362.614 453.731V351.913H392.443C398.144 351.913 403.182 353.123 407.557 355.543C411.965 357.962 415.412 361.343 417.898 365.685C420.417 370.026 421.676 375.114 421.676 380.947C421.676 386.714 420.417 391.769 417.898 396.111C415.412 400.419 411.965 403.784 407.557 406.203C403.182 408.589 398.144 409.783 392.443 409.783H364.205V406.601H392.443C397.548 406.601 402.055 405.54 405.966 403.419C409.877 401.298 412.943 398.315 415.164 394.47C417.384 390.625 418.494 386.118 418.494 380.947C418.494 375.744 417.384 371.203 415.164 367.325C412.943 363.447 409.877 360.448 405.966 358.327C402.055 356.172 397.548 355.095 392.443 355.095H365.796V453.731H362.614ZM401.392 407.396L426.449 453.731H422.869L397.813 407.396H401.392ZM440.792 453.731H437.411L473.803 351.913H478.178L514.57 453.731H511.19L476.19 355.891H475.792L440.792 453.731ZM452.326 416.146H499.656V419.328H452.326V416.146ZM605.6 383.731H602.22C601.59 380.351 600.364 376.904 598.541 373.391C596.718 369.877 594.298 366.629 591.282 363.646C588.266 360.663 584.703 358.26 580.593 356.437C576.483 354.614 571.827 353.703 566.623 353.703C559.663 353.703 553.216 355.609 547.284 359.42C541.384 363.199 536.628 368.75 533.015 376.075C529.436 383.367 527.646 392.283 527.646 402.822C527.646 413.495 529.436 422.477 533.015 429.768C536.628 437.06 541.384 442.579 547.284 446.324C553.216 450.069 559.663 451.942 566.623 451.942C571.827 451.942 576.483 451.047 580.593 449.257C584.703 447.434 588.266 445.048 591.282 442.098C594.298 439.115 596.718 435.867 598.541 432.354C600.364 428.807 601.59 425.327 602.22 421.913H605.6C604.971 425.493 603.711 429.222 601.822 433.099C599.933 436.944 597.381 440.54 594.166 443.888C590.951 447.235 587.056 449.953 582.482 452.041C577.909 454.096 572.622 455.123 566.623 455.123C558.271 455.123 550.929 452.936 544.599 448.561C538.268 444.186 533.33 438.071 529.784 430.216C526.237 422.361 524.464 413.23 524.464 402.822C524.464 392.415 526.237 383.284 529.784 375.429C533.33 367.574 538.268 361.459 544.599 357.084C550.929 352.709 558.271 350.521 566.623 350.521C572.622 350.521 577.909 351.549 582.482 353.604C587.056 355.659 590.951 358.36 594.166 361.707C597.381 365.022 599.933 368.618 601.822 372.496C603.711 376.34 604.971 380.086 605.6 383.731ZM631.403 453.731V351.913H685.693V355.095H634.585V401.231H682.71V404.413H634.585V450.55H687.085V453.731H631.403Z"/>
  </mask>
  <path d="M362.614 453.731V351.913H392.443C398.144 351.913 403.182 353.123 407.557 355.543C411.965 357.962 415.412 361.343 417.898 365.685C420.417 370.026 421.676 375.114 421.676 380.947C421.676 386.714 420.417 391.769 417.898 396.111C415.412 400.419 411.965 403.784 407.557 406.203C403.182 408.589 398.144 409.783 392.443 409.783H364.205V406.601H392.443C397.548 406.601 402.055 405.54 405.966 403.419C409.877 401.298 412.943 398.315 415.164 394.47C417.384 390.625 418.494 386.118 418.494 380.947C418.494 375.744 417.384 371.203 415.164 367.325C412.943 363.447 409.877 360.448 405.966 358.327C402.055 356.172 397.548 355.095 392.443 355.095H365.796V453.731H362.614ZM401.392 407.396L426.449 453.731H422.869L397.813 407.396H401.392ZM440.792 453.731H437.411L473.803 351.913H478.178L514.57 453.731H511.19L476.19 355.891H475.792L440.792 453.731ZM452.326 416.146H499.656V419.328H452.326V416.146ZM605.6 383.731H602.22C601.59 380.351 600.364 376.904 598.541 373.391C596.718 369.877 594.298 366.629 591.282 363.646C588.266 360.663 584.703 358.26 580.593 356.437C576.483 354.614 571.827 353.703 566.623 353.703C559.663 353.703 553.216 355.609 547.284 359.42C541.384 363.199 536.628 368.75 533.015 376.075C529.436 383.367 527.646 392.283 527.646 402.822C527.646 413.495 529.436 422.477 533.015 429.768C536.628 437.06 541.384 442.579 547.284 446.324C553.216 450.069 559.663 451.942 566.623 451.942C571.827 451.942 576.483 451.047 580.593 449.257C584.703 447.434 588.266 445.048 591.282 442.098C594.298 439.115 596.718 435.867 598.541 432.354C600.364 428.807 601.59 425.327 602.22 421.913H605.6C604.971 425.493 603.711 429.222 601.822 433.099C599.933 436.944 597.381 440.54 594.166 443.888C590.951 447.235 587.056 449.953 582.482 452.041C577.909 454.096 572.622 455.123 566.623 455.123C558.271 455.123 550.929 452.936 544.599 448.561C538.268 444.186 533.33 438.071 529.784 430.216C526.237 422.361 524.464 413.23 524.464 402.822C524.464 392.415 526.237 383.284 529.784 375.429C533.33 367.574 538.268 361.459 544.599 357.084C550.929 352.709 558.271 350.521 566.623 350.521C572.622 350.521 577.909 351.549 582.482 353.604C587.056 355.659 590.951 358.36 594.166 361.707C597.381 365.022 599.933 368.618 601.822 372.496C603.711 376.34 604.971 380.086 605.6 383.731ZM631.403 453.731V351.913H685.693V355.095H634.585V401.231H682.71V404.413H634.585V450.55H687.085V453.731H631.403Z" fill="white"/>
  <path d="M362.614 453.731H358.614V457.731H362.614V453.731ZM362.614 351.913V347.913H358.614V351.913H362.614ZM407.557 355.543L405.621 359.043L405.632 359.049L407.557 355.543ZM417.898 365.685L414.427 367.672L414.432 367.682L414.438 367.692L417.898 365.685ZM417.898 396.111L414.438 394.103L414.433 394.112L417.898 396.111ZM407.557 406.203L409.472 409.715L409.482 409.71L407.557 406.203ZM364.205 409.783H360.205V413.783H364.205V409.783ZM364.205 406.601V402.601H360.205V406.601H364.205ZM405.966 403.419L407.873 406.935L407.873 406.935L405.966 403.419ZM415.164 367.325L411.692 369.313L411.692 369.313L415.164 367.325ZM405.966 358.327L404.036 361.83L404.048 361.837L404.059 361.843L405.966 358.327ZM365.796 355.095V351.095H361.796V355.095H365.796ZM365.796 453.731V457.731H369.796V453.731H365.796ZM401.392 407.396L404.911 405.494L403.777 403.396H401.392V407.396ZM426.449 453.731V457.731H433.16L429.968 451.829L426.449 453.731ZM422.869 453.731L419.351 455.634L420.485 457.731H422.869V453.731ZM397.813 407.396V403.396H391.102L394.294 409.299L397.813 407.396ZM366.614 453.731V351.913H358.614V453.731H366.614ZM362.614 355.913H392.443V347.913H362.614V355.913ZM392.443 355.913C397.563 355.913 401.918 356.995 405.621 359.043L409.493 352.042C404.446 349.251 398.725 347.913 392.443 347.913V355.913ZM405.632 359.049C409.398 361.116 412.309 363.973 414.427 367.672L421.369 363.697C418.516 358.713 414.532 354.808 409.482 352.036L405.632 359.049ZM414.438 367.692C416.549 371.331 417.676 375.703 417.676 380.947H425.676C425.676 374.525 424.284 368.722 421.358 363.677L414.438 367.692ZM417.676 380.947C417.676 386.116 416.553 390.457 414.438 394.103L421.358 398.118C424.28 393.08 425.676 387.313 425.676 380.947H417.676ZM414.433 394.112C412.317 397.779 409.406 400.625 405.632 402.697L409.482 409.71C414.524 406.942 418.507 403.06 421.363 398.11L414.433 394.112ZM405.642 402.691C401.934 404.714 397.572 405.783 392.443 405.783V413.783C398.716 413.783 404.43 412.465 409.472 409.715L405.642 402.691ZM392.443 405.783H364.205V413.783H392.443V405.783ZM368.205 409.783V406.601H360.205V409.783H368.205ZM364.205 410.601H392.443V402.601H364.205V410.601ZM392.443 410.601C398.115 410.601 403.295 409.418 407.873 406.935L404.059 399.903C400.815 401.662 396.98 402.601 392.443 402.601V410.601ZM407.873 406.935C412.431 404.463 416.037 400.956 418.627 396.471L411.7 392.469C409.849 395.674 407.323 398.133 404.059 399.903L407.873 406.935ZM418.627 396.471C421.253 391.924 422.494 386.703 422.494 380.947H414.494C414.494 385.532 413.515 389.327 411.7 392.469L418.627 396.471ZM422.494 380.947C422.494 375.162 421.255 369.914 418.635 365.337L411.692 369.313C413.513 372.493 414.494 376.325 414.494 380.947H422.494ZM418.635 365.337C416.046 360.818 412.44 357.288 407.873 354.81L404.059 361.843C407.314 363.608 409.839 366.077 411.692 369.313L418.635 365.337ZM407.896 354.823C403.314 352.299 398.125 351.095 392.443 351.095V359.095C396.97 359.095 400.796 360.046 404.036 361.83L407.896 354.823ZM392.443 351.095H365.796V359.095H392.443V351.095ZM361.796 355.095V453.731H369.796V355.095H361.796ZM365.796 449.731H362.614V457.731H365.796V449.731ZM397.874 409.299L422.931 455.634L429.968 451.829L404.911 405.494L397.874 409.299ZM426.449 449.731H422.869V457.731H426.449V449.731ZM426.388 451.829L401.331 405.494L394.294 409.299L419.351 455.634L426.388 451.829ZM397.813 411.396H401.392V403.396H397.813V411.396ZM440.792 453.731V457.731H443.609L444.558 455.079L440.792 453.731ZM437.411 453.731L433.645 452.385L431.734 457.731H437.411V453.731ZM473.803 351.913V347.913H470.985L470.037 350.567L473.803 351.913ZM478.178 351.913L481.945 350.567L480.997 347.913H478.178V351.913ZM514.57 453.731V457.731H520.248L518.337 452.385L514.57 453.731ZM511.19 453.731L507.424 455.079L508.372 457.731H511.19V453.731ZM476.19 355.891L479.956 354.543L479.007 351.891H476.19V355.891ZM475.792 355.891V351.891H472.975L472.026 354.543L475.792 355.891ZM452.326 416.146V412.146H448.326V416.146H452.326ZM499.656 416.146H503.656V412.146H499.656V416.146ZM499.656 419.328V423.328H503.656V419.328H499.656ZM452.326 419.328H448.326V423.328H452.326V419.328ZM440.792 449.731H437.411V457.731H440.792V449.731ZM441.178 455.078L477.57 353.26L470.037 350.567L433.645 452.385L441.178 455.078ZM473.803 355.913H478.178V347.913H473.803V355.913ZM474.412 353.26L510.804 455.078L518.337 452.385L481.945 350.567L474.412 353.26ZM514.57 449.731H511.19V457.731H514.57V449.731ZM514.956 452.384L479.956 354.543L472.424 357.238L507.424 455.079L514.956 452.384ZM476.19 351.891H475.792V359.891H476.19V351.891ZM472.026 354.543L437.026 452.384L444.558 455.079L479.558 357.238L472.026 354.543ZM452.326 420.146H499.656V412.146H452.326V420.146ZM495.656 416.146V419.328H503.656V416.146H495.656ZM499.656 415.328H452.326V423.328H499.656V415.328ZM456.326 419.328V416.146H448.326V419.328H456.326ZM605.6 383.731V387.731H610.35L609.542 383.051L605.6 383.731ZM602.22 383.731L598.287 384.464L598.896 387.731H602.22V383.731ZM598.541 373.391L594.99 375.233L594.99 375.233L598.541 373.391ZM591.282 363.646L594.095 360.802L594.095 360.802L591.282 363.646ZM580.593 356.437L582.215 352.781L582.215 352.781L580.593 356.437ZM547.284 359.42L549.441 362.789L549.446 362.786L547.284 359.42ZM533.015 376.075L529.428 374.306L529.424 374.313L533.015 376.075ZM533.015 429.768L529.424 431.531L529.428 431.538L529.431 431.544L533.015 429.768ZM547.284 446.324L545.14 449.701L545.148 449.706L547.284 446.324ZM580.593 449.257L582.19 452.924L582.203 452.919L582.215 452.913L580.593 449.257ZM591.282 442.098L594.079 444.958L594.087 444.95L594.095 444.942L591.282 442.098ZM598.541 432.354L602.091 434.196L602.095 434.189L602.098 434.182L598.541 432.354ZM602.22 421.913V417.913H598.89L598.286 421.188L602.22 421.913ZM605.6 421.913L609.54 422.606L610.365 417.913H605.6V421.913ZM601.822 433.099L605.412 434.863L605.418 434.851L601.822 433.099ZM594.166 443.888L591.281 441.117L591.281 441.117L594.166 443.888ZM582.482 452.041L584.122 455.69L584.133 455.685L584.144 455.68L582.482 452.041ZM544.599 448.561L546.873 445.27L546.873 445.27L544.599 448.561ZM529.784 430.216L526.138 431.862L526.138 431.862L529.784 430.216ZM544.599 357.084L546.873 360.374L546.873 360.374L544.599 357.084ZM582.482 353.604L580.843 357.252L582.482 353.604ZM594.166 361.707L591.281 364.478L591.288 364.485L591.294 364.492L594.166 361.707ZM601.822 372.496L598.226 374.248L598.232 374.26L601.822 372.496ZM605.6 379.731H602.22V387.731H605.6V379.731ZM606.152 382.999C605.44 379.178 604.068 375.359 602.091 371.548L594.99 375.233C596.659 378.448 597.739 381.523 598.287 384.464L606.152 382.999ZM602.091 371.548C600.063 367.639 597.386 364.058 594.095 360.802L588.469 366.49C591.21 369.201 593.373 372.116 594.99 375.233L602.091 371.548ZM594.095 360.802C590.714 357.459 586.741 354.788 582.215 352.781L578.971 360.094C582.665 361.732 585.818 363.868 588.469 366.49L594.095 360.802ZM582.215 352.781C577.52 350.699 572.298 349.703 566.623 349.703V357.703C571.355 357.703 575.446 358.53 578.971 360.094L582.215 352.781ZM566.623 349.703C558.886 349.703 551.69 351.835 545.121 356.055L549.446 362.786C554.742 359.383 560.44 357.703 566.623 357.703V349.703ZM545.126 356.052C538.518 360.284 533.308 366.438 529.428 374.306L536.602 377.845C539.947 371.063 544.25 366.113 549.441 362.789L545.126 356.052ZM529.424 374.313C525.508 382.291 523.646 391.847 523.646 402.822H531.646C531.646 392.718 533.363 384.443 536.606 377.838L529.424 374.313ZM523.646 402.822C523.646 413.922 525.505 423.547 529.424 431.531L536.606 428.006C533.366 421.407 531.646 413.068 531.646 402.822H523.646ZM529.431 431.544C533.314 439.382 538.527 445.503 545.14 449.701L549.427 442.947C544.241 439.654 539.941 434.738 536.599 427.993L529.431 431.544ZM545.148 449.706C551.715 453.851 558.901 455.942 566.623 455.942V447.942C560.425 447.942 554.718 446.287 549.419 442.941L545.148 449.706ZM566.623 455.942C572.289 455.942 577.502 454.966 582.19 452.924L578.996 445.59C575.465 447.128 571.365 447.942 566.623 447.942V455.942ZM582.215 452.913C586.732 450.91 590.7 448.262 594.079 444.958L588.485 439.238C585.832 441.833 582.674 443.958 578.971 445.601L582.215 452.913ZM594.095 444.942C597.386 441.687 600.063 438.105 602.091 434.196L594.99 430.511C593.373 433.629 591.21 436.543 588.469 439.254L594.095 444.942ZM602.098 434.182C604.074 430.339 605.443 426.489 606.153 422.639L598.286 421.188C597.737 424.165 596.653 427.275 594.983 430.525L602.098 434.182ZM602.22 425.913H605.6V417.913H602.22V425.913ZM601.661 421.22C601.106 424.372 599.981 427.744 598.226 431.347L605.418 434.851C607.441 430.699 608.835 426.614 609.54 422.606L601.661 421.22ZM598.232 431.335C596.539 434.781 594.234 438.042 591.281 441.117L597.051 446.658C600.527 443.038 603.326 439.108 605.412 434.863L598.232 431.335ZM591.281 441.117C588.443 444.071 584.975 446.506 580.821 448.402L584.144 455.68C589.138 453.4 593.458 450.399 597.051 446.658L591.281 441.117ZM580.843 448.392C576.876 450.175 572.166 451.123 566.623 451.123V459.123C573.078 459.123 578.941 458.017 584.122 455.69L580.843 448.392ZM566.623 451.123C559.01 451.123 552.478 449.144 546.873 445.27L542.325 451.852C549.381 456.728 557.531 459.123 566.623 459.123V451.123ZM546.873 445.27C541.21 441.357 536.713 435.844 533.429 428.57L526.138 431.862C529.947 440.298 535.327 447.015 542.325 451.852L546.873 445.27ZM533.429 428.57C530.16 421.328 528.464 412.778 528.464 402.822H520.464C520.464 413.682 522.315 423.393 526.138 431.862L533.429 428.57ZM528.464 402.822C528.464 392.867 530.16 384.317 533.429 377.075L526.138 373.783C522.315 382.251 520.464 391.963 520.464 402.822H528.464ZM533.429 377.075C536.713 369.801 541.21 364.288 546.873 360.374L542.325 353.793C535.327 358.63 529.947 365.347 526.138 373.783L533.429 377.075ZM546.873 360.374C552.478 356.501 559.01 354.521 566.623 354.521V346.521C557.531 346.521 549.381 348.916 542.325 353.793L546.873 360.374ZM566.623 354.521C572.166 354.521 576.876 355.47 580.843 357.252L584.122 349.955C578.941 347.628 573.078 346.521 566.623 346.521V354.521ZM580.843 357.252C584.987 359.114 588.449 361.529 591.281 364.478L597.051 358.937C593.453 355.19 589.125 352.203 584.122 349.955L580.843 357.252ZM591.294 364.492C594.235 367.524 596.535 370.776 598.226 374.248L605.418 370.744C603.331 366.459 600.526 362.519 597.037 358.922L591.294 364.492ZM598.232 374.26C599.979 377.815 601.103 381.196 601.659 384.412L609.542 383.051C608.838 378.975 607.443 374.866 605.412 370.732L598.232 374.26ZM631.403 453.731H627.403V457.731H631.403V453.731ZM631.403 351.913V347.913H627.403V351.913H631.403ZM685.693 351.913H689.693V347.913H685.693V351.913ZM685.693 355.095V359.095H689.693V355.095H685.693ZM634.585 355.095V351.095H630.585V355.095H634.585ZM634.585 401.231H630.585V405.231H634.585V401.231ZM682.71 401.231H686.71V397.231H682.71V401.231ZM682.71 404.413V408.413H686.71V404.413H682.71ZM634.585 404.413V400.413H630.585V404.413H634.585ZM634.585 450.55H630.585V454.55H634.585V450.55ZM687.085 450.55H691.085V446.55H687.085V450.55ZM687.085 453.731V457.731H691.085V453.731H687.085ZM635.403 453.731V351.913H627.403V453.731H635.403ZM631.403 355.913H685.693V347.913H631.403V355.913ZM681.693 351.913V355.095H689.693V351.913H681.693ZM685.693 351.095H634.585V359.095H685.693V351.095ZM630.585 355.095V401.231H638.585V355.095H630.585ZM634.585 405.231H682.71V397.231H634.585V405.231ZM678.71 401.231V404.413H686.71V401.231H678.71ZM682.71 400.413H634.585V408.413H682.71V400.413ZM630.585 404.413V450.55H638.585V404.413H630.585ZM634.585 454.55H687.085V446.55H634.585V454.55ZM683.085 450.55V453.731H691.085V450.55H683.085ZM687.085 449.731H631.403V457.731H687.085V449.731Z" fill="#29B1DC" mask="url(#path-11-outside-2_13_44)"/>
  </g>
  <defs>
  <filter id="filter0_d_13_44" x="0.499969" y="117.674" width="195.553" height="267.45" filterUnits="userSpaceOnUse" color-interpolation-filters="sRGB">
  <feFlood flood-opacity="0" result="BackgroundImageFix"/>
  <feColorMatrix in="SourceAlpha" type="matrix" values="0 0 0 0 0 0 0 0 0 0 0 0 0 0 0 0 0 0 127 0" result="hardAlpha"/>
  <feOffset/>
  <feGaussianBlur stdDeviation="25"/>
  <feComposite in2="hardAlpha" operator="out"/>
  <feColorMatrix type="matrix" values="0 0 0 0 0.603922 0 0 0 0 0.356863 0 0 0 0 0.686275 0 0 0 1 0"/>
  <feBlend mode="normal" in2="BackgroundImageFix" result="effect1_dropShadow_13_44"/>
  <feBlend mode="normal" in="SourceGraphic" in2="effect1_dropShadow_13_44" result="shape"/>
  </filter>
  <filter id="filter1_d_13_44" x="37.8796" y="314.639" width="738.451" height="306.09" filterUnits="userSpaceOnUse" color-interpolation-filters="sRGB">
  <feFlood flood-opacity="0" result="BackgroundImageFix"/>
  <feColorMatrix in="SourceAlpha" type="matrix" values="0 0 0 0 0 0 0 0 0 0 0 0 0 0 0 0 0 0 127 0" result="hardAlpha"/>
  <feOffset/>
  <feGaussianBlur stdDeviation="25"/>
  <feComposite in2="hardAlpha" operator="out"/>
  <feColorMatrix type="matrix" values="0 0 0 0 0.603922 0 0 0 0 0.356863 0 0 0 0 0.686275 0 0 0 1 0"/>
  <feBlend mode="normal" in2="BackgroundImageFix" result="effect1_dropShadow_13_44"/>
  <feBlend mode="normal" in="SourceGraphic" in2="effect1_dropShadow_13_44" result="shape"/>
  </filter>
  <filter id="filter2_d_13_44" x="697.972" y="0.499939" width="323.012" height="626.508" filterUnits="userSpaceOnUse" color-interpolation-filters="sRGB">
  <feFlood flood-opacity="0" result="BackgroundImageFix"/>
  <feColorMatrix in="SourceAlpha" type="matrix" values="0 0 0 0 0 0 0 0 0 0 0 0 0 0 0 0 0 0 127 0" result="hardAlpha"/>
  <feOffset/>
  <feGaussianBlur stdDeviation="25"/>
  <feComposite in2="hardAlpha" operator="out"/>
  <feColorMatrix type="matrix" values="0 0 0 0 0.603922 0 0 0 0 0.356863 0 0 0 0 0.686275 0 0 0 1 0"/>
  <feBlend mode="normal" in2="BackgroundImageFix" result="effect1_dropShadow_13_44"/>
  <feBlend mode="normal" in="SourceGraphic" in2="effect1_dropShadow_13_44" result="shape"/>
  </filter>
  <filter id="filter3_d_13_44" x="363.212" y="10.7663" width="494.985" height="162.93" filterUnits="userSpaceOnUse" color-interpolation-filters="sRGB">
  <feFlood flood-opacity="0" result="BackgroundImageFix"/>
  <feColorMatrix in="SourceAlpha" type="matrix" values="0 0 0 0 0 0 0 0 0 0 0 0 0 0 0 0 0 0 127 0" result="hardAlpha"/>
  <feOffset/>
  <feGaussianBlur stdDeviation="25"/>
  <feComposite in2="hardAlpha" operator="out"/>
  <feColorMatrix type="matrix" values="0 0 0 0 0.603922 0 0 0 0 0.356863 0 0 0 0 0.686275 0 0 0 1 0"/>
  <feBlend mode="normal" in2="BackgroundImageFix" result="effect1_dropShadow_13_44"/>
  <feBlend mode="normal" in="SourceGraphic" in2="effect1_dropShadow_13_44" result="shape"/>
  </filter>
  <filter id="filter4_d_13_44" x="102.689" y="71.2696" width="326.031" height="140.424" filterUnits="userSpaceOnUse" color-interpolation-filters="sRGB">
  <feFlood flood-opacity="0" result="BackgroundImageFix"/>
  <feColorMatrix in="SourceAlpha" type="matrix" values="0 0 0 0 0 0 0 0 0 0 0 0 0 0 0 0 0 0 127 0" result="hardAlpha"/>
  <feOffset/>
  <feGaussianBlur stdDeviation="25"/>
  <feComposite in2="hardAlpha" operator="out"/>
  <feColorMatrix type="matrix" values="0 0 0 0 0.603922 0 0 0 0 0.356863 0 0 0 0 0.686275 0 0 0 1 0"/>
  <feBlend mode="normal" in2="BackgroundImageFix" result="effect1_dropShadow_13_44"/>
  <feBlend mode="normal" in="SourceGraphic" in2="effect1_dropShadow_13_44" result="shape"/>
  </filter>
  <filter id="filter5_d_13_44" x="203.682" y="39.4777" width="776.173" height="543.915" filterUnits="userSpaceOnUse" color-interpolation-filters="sRGB">
  <feFlood flood-opacity="0" result="BackgroundImageFix"/>
  <feColorMatrix in="SourceAlpha" type="matrix" values="0 0 0 0 0 0 0 0 0 0 0 0 0 0 0 0 0 0 127 0" result="hardAlpha"/>
  <feOffset/>
  <feGaussianBlur stdDeviation="12.5"/>
  <feComposite in2="hardAlpha" operator="out"/>
  <feColorMatrix type="matrix" values="0 0 0 0 0.160784 0 0 0 0 0.694118 0 0 0 0 0.862745 0 0 0 1 0"/>
  <feBlend mode="normal" in2="BackgroundImageFix" result="effect1_dropShadow_13_44"/>
  <feBlend mode="normal" in="SourceGraphic" in2="effect1_dropShadow_13_44" result="shape"/>
  </filter>
  <filter id="filter6_d_13_44" x="41.7047" y="160.358" width="491.143" height="413.871" filterUnits="userSpaceOnUse" color-interpolation-filters="sRGB">
  <feFlood flood-opacity="0" result="BackgroundImageFix"/>
  <feColorMatrix in="SourceAlpha" type="matrix" values="0 0 0 0 0 0 0 0 0 0 0 0 0 0 0 0 0 0 127 0" result="hardAlpha"/>
  <feOffset/>
  <feGaussianBlur stdDeviation="12.5"/>
  <feComposite in2="hardAlpha" operator="out"/>
  <feColorMatrix type="matrix" values="0 0 0 0 0.160784 0 0 0 0 0.694118 0 0 0 0 0.862745 0 0 0 1 0"/>
  <feBlend mode="normal" in2="BackgroundImageFix" result="effect1_dropShadow_13_44"/>
  <feBlend mode="normal" in="SourceGraphic" in2="effect1_dropShadow_13_44" result="shape"/>
  </filter>
  <filter id="filter7_d_13_44" x="510.038" y="517.235" width="197.333" height="63.9921" filterUnits="userSpaceOnUse" color-interpolation-filters="sRGB">
  <feFlood flood-opacity="0" result="BackgroundImageFix"/>
  <feColorMatrix in="SourceAlpha" type="matrix" values="0 0 0 0 0 0 0 0 0 0 0 0 0 0 0 0 0 0 127 0" result="hardAlpha"/>
  <feOffset/>
  <feGaussianBlur stdDeviation="12.5"/>
  <feComposite in2="hardAlpha" operator="out"/>
  <feColorMatrix type="matrix" values="0 0 0 0 0.160784 0 0 0 0 0.694118 0 0 0 0 0.862745 0 0 0 1 0"/>
  <feBlend mode="normal" in2="BackgroundImageFix" result="effect1_dropShadow_13_44"/>
  <feBlend mode="normal" in="SourceGraphic" in2="effect1_dropShadow_13_44" result="shape"/>
  </filter>
  <filter id="filter8_d_13_44" x="259.279" y="183.322" width="502.701" height="155" filterUnits="userSpaceOnUse" color-interpolation-filters="sRGB">
  <feFlood flood-opacity="0" result="BackgroundImageFix"/>
  <feColorMatrix in="SourceAlpha" type="matrix" values="0 0 0 0 0 0 0 0 0 0 0 0 0 0 0 0 0 0 127 0" result="hardAlpha"/>
  <feOffset/>
  <feGaussianBlur stdDeviation="12.5"/>
  <feComposite in2="hardAlpha" operator="out"/>
  <feColorMatrix type="matrix" values="0 0 0 0 0.6 0 0 0 0 0.360784 0 0 0 0 0.686275 0 0 0 1 0"/>
  <feBlend mode="normal" in2="BackgroundImageFix" result="effect1_dropShadow_13_44"/>
  <feBlend mode="normal" in="SourceGraphic" in2="effect1_dropShadow_13_44" result="shape"/>
  </filter>
  <filter id="filter9_d_13_44" x="337.614" y="325.521" width="374.471" height="154.602" filterUnits="userSpaceOnUse" color-interpolation-filters="sRGB">
  <feFlood flood-opacity="0" result="BackgroundImageFix"/>
  <feColorMatrix in="SourceAlpha" type="matrix" values="0 0 0 0 0 0 0 0 0 0 0 0 0 0 0 0 0 0 127 0" result="hardAlpha"/>
  <feOffset/>
  <feGaussianBlur stdDeviation="12.5"/>
  <feComposite in2="hardAlpha" operator="out"/>
  <feColorMatrix type="matrix" values="0 0 0 0 0.160784 0 0 0 0 0.694118 0 0 0 0 0.862745 0 0 0 1 0"/>
  <feBlend mode="normal" in2="BackgroundImageFix" result="effect1_dropShadow_13_44"/>
  <feBlend mode="normal" in="SourceGraphic" in2="effect1_dropShadow_13_44" result="shape"/>
  </filter>
  </defs>
  </svg>
  