<svg viewBox="0 0 619 16" fill="none" xmlns="http://www.w3.org/2000/svg">
  <mask id="path-1-inside-1_12_111" fill="white">
    <path d="M0 0H618V16H0V0Z" />
  </mask>
  <path d="M0 1.5H618V-1.5H0V1.5ZM618 14.5H0V17.5H618V14.5Z" fill="white"
    mask="url(#path-1-inside-1_12_111)" />
  <path d="M5.63494 4H2.27795L6.89382 7.66667L2.27795 12H5.63494L10.2508 7.66667L5.63494 4Z"
    stroke="white" />
  <path d="M29.5535 4H26.1965L30.8124 7.66667L26.1965 12H29.5535L34.1694 7.66667L29.5535 4Z"
    stroke="white" />
  <path d="M37.5264 4H34.1694L38.7852 7.66667L34.1694 12H37.5264L42.1422 7.66667L37.5264 4Z"
    stroke="white" />
  <path d="M21.5807 4H18.2237L22.8395 7.66667L18.2237 12H21.5807L26.1965 7.66667L21.5807 4Z"
    stroke="white" />
  <path d="M13.6078 4H10.2508L14.8667 7.66667L10.2508 12H13.6078L18.2237 7.66667L13.6078 4Z"
    stroke="white" />
  <path d="M604.357 4H601L605.616 7.66667L601 12H604.357L608.973 7.66667L604.357 4Z" stroke="white" />
  <path d="M613.357 4H610L614.616 7.66667L610 12H613.357L617.973 7.66667L613.357 4Z" stroke="white" />
  <path d="M46.6382 4H43.2812L47.8971 7.66667L43.2812 12H46.6382L51.254 7.66667L46.6382 4Z"
    stroke="#DD9E1F" />
  <path d="M70.5568 4H67.1998L71.8156 7.66667L67.1998 12H70.5568L75.1726 7.66667L70.5568 4Z"
    stroke="#DD9E1F" />
  <path d="M78.5296 4H75.1726L79.7885 7.66667L75.1726 12H78.5296L83.1455 7.66667L78.5296 4Z"
    stroke="#DD9E1F" />
  <path d="M62.5839 4H59.2269L63.8428 7.66667L59.2269 12H62.5839L67.1998 7.66667L62.5839 4Z"
    stroke="#DD9E1F" />
  <path d="M54.6111 4H51.2541L55.87 7.66667L51.2541 12H54.6111L59.2269 7.66667L54.6111 4Z"
    stroke="#DD9E1F" />
  <path d="M87.6414 4H84.2845L88.9003 7.66667L84.2845 12H87.6414L92.2573 7.66667L87.6414 4Z"
    stroke="white" />
  <path d="M111.56 4H108.203L112.819 7.66667L108.203 12H111.56L116.176 7.66667L111.56 4Z"
    stroke="white" />
  <path d="M119.533 4H116.176L120.792 7.66667L116.176 12H119.533L124.149 7.66667L119.533 4Z"
    stroke="white" />
  <path d="M103.587 4H100.23L104.846 7.66667L100.23 12H103.587L108.203 7.66667L103.587 4Z"
    stroke="white" />
  <path d="M95.6143 4H92.2573L96.8732 7.66667L92.2573 12H95.6143L100.23 7.66667L95.6143 4Z"
    stroke="white" />
  <path d="M128.645 4H125.288L129.904 7.66667L125.288 12H128.645L133.261 7.66667L128.645 4Z"
    stroke="#DD9E1F" />
  <path d="M154.357 4H151L155.616 7.66667L151 12H154.357L158.973 7.66667L154.357 4Z"
    stroke="#DD9E1F" />
  <path d="M163.357 4H160L164.616 7.66667L160 12H163.357L167.973 7.66667L163.357 4Z"
    stroke="#DD9E1F" />
  <path d="M145.357 4H142L146.616 7.66667L142 12H145.357L149.973 7.66667L145.357 4Z"
    stroke="#DD9E1F" />
  <path d="M136.618 4H133.261L137.876 7.66667L133.261 12H136.618L141.233 7.66667L136.618 4Z"
    stroke="#DD9E1F" />
  <path d="M171.947 4H169L173.053 7.66667L169 12H171.947L176 7.66667L171.947 4Z" stroke="white" />
  <path d="M192.947 4H190L194.053 7.66667L190 12H192.947L197 7.66667L192.947 4Z" stroke="white" />
  <path d="M199.947 4H197L201.053 7.66667L197 12H199.947L204 7.66667L199.947 4Z" stroke="white" />
  <path d="M185.947 4H183L187.053 7.66667L183 12H185.947L190 7.66667L185.947 4Z" stroke="white" />
  <path d="M178.947 4H176L180.053 7.66667L176 12H178.947L183 7.66667L178.947 4Z" stroke="white" />
  <path d="M207.947 4H205L209.053 7.66667L205 12H207.947L212 7.66667L207.947 4Z" stroke="#DD9E1F" />
  <path d="M228.947 4H226L230.053 7.66667L226 12H228.947L233 7.66667L228.947 4Z" stroke="#DD9E1F" />
  <path d="M235.947 4H233L237.053 7.66667L233 12H235.947L240 7.66667L235.947 4Z" stroke="#DD9E1F" />
  <path d="M221.947 4H219L223.053 7.66667L219 12H221.947L226 7.66667L221.947 4Z" stroke="#DD9E1F" />
  <path d="M214.947 4H212L216.053 7.66667L212 12H214.947L219 7.66667L214.947 4Z" stroke="#DD9E1F" />
  <path d="M315.947 4H313L317.053 7.66667L313 12H315.947L320 7.66667L315.947 4Z" stroke="white" />
  <path d="M336.947 4H334L338.053 7.66667L334 12H336.947L341 7.66667L336.947 4Z" stroke="white" />
  <path d="M343.947 4H341L345.053 7.66667L341 12H343.947L348 7.66667L343.947 4Z" stroke="white" />
  <path d="M329.947 4H327L331.053 7.66667L327 12H329.947L334 7.66667L329.947 4Z" stroke="white" />
  <path d="M322.947 4H320L324.053 7.66667L320 12H322.947L327 7.66667L322.947 4Z" stroke="white" />
  <path d="M351.947 4H349L353.053 7.66667L349 12H351.947L356 7.66667L351.947 4Z" stroke="#DD9E1F" />
  <path d="M372.947 4H370L374.053 7.66667L370 12H372.947L377 7.66667L372.947 4Z" stroke="#DD9E1F" />
  <path d="M379.947 4H377L381.053 7.66667L377 12H379.947L384 7.66667L379.947 4Z" stroke="#DD9E1F" />
  <path d="M365.947 4H363L367.053 7.66667L363 12H365.947L370 7.66667L365.947 4Z" stroke="#DD9E1F" />
  <path d="M358.947 4H356L360.053 7.66667L356 12H358.947L363 7.66667L358.947 4Z" stroke="#DD9E1F" />
  <path d="M243.947 4H241L245.053 7.66667L241 12H243.947L248 7.66667L243.947 4Z" stroke="white" />
  <path d="M264.947 4H262L266.053 7.66667L262 12H264.947L269 7.66667L264.947 4Z" stroke="white" />
  <path d="M271.947 4H269L273.053 7.66667L269 12H271.947L276 7.66667L271.947 4Z" stroke="white" />
  <path d="M257.947 4H255L259.053 7.66667L255 12H257.947L262 7.66667L257.947 4Z" stroke="white" />
  <path d="M250.947 4H248L252.053 7.66667L248 12H250.947L255 7.66667L250.947 4Z" stroke="white" />
  <path d="M279.947 4H277L281.053 7.66667L277 12H279.947L284 7.66667L279.947 4Z" stroke="#DD9E1F" />
  <path d="M300.947 4H298L302.053 7.66667L298 12H300.947L305 7.66667L300.947 4Z" stroke="#DD9E1F" />
  <path d="M307.947 4H305L309.053 7.66667L305 12H307.947L312 7.66667L307.947 4Z" stroke="#DD9E1F" />
  <path d="M293.947 4H291L295.053 7.66667L291 12H293.947L298 7.66667L293.947 4Z" stroke="#DD9E1F" />
  <path d="M286.947 4H284L288.053 7.66667L284 12H286.947L291 7.66667L286.947 4Z" stroke="#DD9E1F" />
  <path d="M387.947 4H385L389.053 7.66667L385 12H387.947L392 7.66667L387.947 4Z" stroke="white" />
  <path d="M408.947 4H406L410.053 7.66667L406 12H408.947L413 7.66667L408.947 4Z" stroke="white" />
  <path d="M415.947 4H413L417.053 7.66667L413 12H415.947L420 7.66667L415.947 4Z" stroke="white" />
  <path d="M401.947 4H399L403.053 7.66667L399 12H401.947L406 7.66667L401.947 4Z" stroke="white" />
  <path d="M394.947 4H392L396.053 7.66667L392 12H394.947L399 7.66667L394.947 4Z" stroke="white" />
  <path d="M423.947 4H421L425.053 7.66667L421 12H423.947L428 7.66667L423.947 4Z" stroke="#DD9E1F" />
  <path d="M444.947 4H442L446.053 7.66667L442 12H444.947L449 7.66667L444.947 4Z" stroke="#DD9E1F" />
  <path d="M451.947 4H449L453.053 7.66667L449 12H451.947L456 7.66667L451.947 4Z" stroke="#DD9E1F" />
  <path d="M437.947 4H435L439.053 7.66667L435 12H437.947L442 7.66667L437.947 4Z" stroke="#DD9E1F" />
  <path d="M430.947 4H428L432.053 7.66667L428 12H430.947L435 7.66667L430.947 4Z" stroke="#DD9E1F" />
  <path d="M531.947 4H529L533.053 7.66667L529 12H531.947L536 7.66667L531.947 4Z" stroke="white" />
  <path d="M552.947 4H550L554.053 7.66667L550 12H552.947L557 7.66667L552.947 4Z" stroke="white" />
  <path d="M559.947 4H557L561.053 7.66667L557 12H559.947L564 7.66667L559.947 4Z" stroke="white" />
  <path d="M545.947 4H543L547.053 7.66667L543 12H545.947L550 7.66667L545.947 4Z" stroke="white" />
  <path d="M538.947 4H536L540.053 7.66667L536 12H538.947L543 7.66667L538.947 4Z" stroke="white" />
  <path d="M567.947 4H565L569.053 7.66667L565 12H567.947L572 7.66667L567.947 4Z" stroke="#DD9E1F" />
  <path d="M588.947 4H586L590.053 7.66667L586 12H588.947L593 7.66667L588.947 4Z" stroke="#DD9E1F" />
  <path d="M595.947 4H593L597.053 7.66667L593 12H595.947L600 7.66667L595.947 4Z" stroke="#DD9E1F" />
  <path d="M581.947 4H579L583.053 7.66667L579 12H581.947L586 7.66667L581.947 4Z" stroke="#DD9E1F" />
  <path d="M574.947 4H572L576.053 7.66667L572 12H574.947L579 7.66667L574.947 4Z" stroke="#DD9E1F" />
  <path d="M459.947 4H457L461.053 7.66667L457 12H459.947L464 7.66667L459.947 4Z" stroke="white" />
  <path d="M480.947 4H478L482.053 7.66667L478 12H480.947L485 7.66667L480.947 4Z" stroke="white" />
  <path d="M487.947 4H485L489.053 7.66667L485 12H487.947L492 7.66667L487.947 4Z" stroke="white" />
  <path d="M473.947 4H471L475.053 7.66667L471 12H473.947L478 7.66667L473.947 4Z" stroke="white" />
  <path d="M466.947 4H464L468.053 7.66667L464 12H466.947L471 7.66667L466.947 4Z" stroke="white" />
  <path d="M495.947 4H493L497.053 7.66667L493 12H495.947L500 7.66667L495.947 4Z" stroke="#DD9E1F" />
  <path d="M516.947 4H514L518.053 7.66667L514 12H516.947L521 7.66667L516.947 4Z" stroke="#DD9E1F" />
  <path d="M523.947 4H521L525.053 7.66667L521 12H523.947L528 7.66667L523.947 4Z" stroke="#DD9E1F" />
  <path d="M509.947 4H507L511.053 7.66667L507 12H509.947L514 7.66667L509.947 4Z" stroke="#DD9E1F" />
  <path d="M502.947 4H500L504.053 7.66667L500 12H502.947L507 7.66667L502.947 4Z" stroke="#DD9E1F" />
</svg>