<svg width="2805" height="411" viewBox="0 0 2805 411" fill="none" xmlns="http://www.w3.org/2000/svg">
  <g filter="url(#filter0_d_14_55)">
  <path d="M170.5 35H49L208 198.387L49 376H170.5L333.5 198.387L170.5 35Z" stroke="white" stroke-width="20"/>
  <path d="M170.5 35H49L208 198.387L49 376H170.5L333.5 198.387L170.5 35Z" stroke="#BA44FB" stroke-opacity="0.2" stroke-width="20"/>
  <path d="M474.5 35H353L512 198.387L353 376H474.5L637.5 198.387L474.5 35Z" stroke="white" stroke-width="20"/>
  <path d="M474.5 35H353L512 198.387L353 376H474.5L637.5 198.387L474.5 35Z" stroke="#BA44FB" stroke-opacity="0.2" stroke-width="20"/>
  <path d="M778.5 35H657L816 198.387L657 376H778.5L941.5 198.387L778.5 35Z" stroke="white" stroke-width="20"/>
  <path d="M778.5 35H657L816 198.387L657 376H778.5L941.5 198.387L778.5 35Z" stroke="#BA44FB" stroke-opacity="0.2" stroke-width="20"/>
  <path d="M1082.5 35H961L1120 198.387L961 376H1082.5L1245.5 198.387L1082.5 35Z" stroke="white" stroke-width="20"/>
  <path d="M1082.5 35H961L1120 198.387L961 376H1082.5L1245.5 198.387L1082.5 35Z" stroke="#BA44FB" stroke-opacity="0.2" stroke-width="20"/>
  <path d="M1386.5 35H1265L1424 198.387L1265 376H1386.5L1549.5 198.387L1386.5 35Z" stroke="white" stroke-width="20"/>
  <path d="M1386.5 35H1265L1424 198.387L1265 376H1386.5L1549.5 198.387L1386.5 35Z" stroke="#BA44FB" stroke-opacity="0.2" stroke-width="20"/>
  <path d="M1690.5 35H1569L1728 198.387L1569 376H1690.5L1853.5 198.387L1690.5 35Z" stroke="white" stroke-width="20"/>
  <path d="M1690.5 35H1569L1728 198.387L1569 376H1690.5L1853.5 198.387L1690.5 35Z" stroke="#BA44FB" stroke-opacity="0.2" stroke-width="20"/>
  <path d="M1994.5 35H1873L2032 198.387L1873 376H1994.5L2157.5 198.387L1994.5 35Z" stroke="white" stroke-width="20"/>
  <path d="M1994.5 35H1873L2032 198.387L1873 376H1994.5L2157.5 198.387L1994.5 35Z" stroke="#BA44FB" stroke-opacity="0.2" stroke-width="20"/>
  <path d="M2298.5 35H2177L2336 198.387L2177 376H2298.5L2461.5 198.387L2298.5 35Z" stroke="white" stroke-width="20"/>
  <path d="M2298.5 35H2177L2336 198.387L2177 376H2298.5L2461.5 198.387L2298.5 35Z" stroke="#BA44FB" stroke-opacity="0.2" stroke-width="20"/>
  <path d="M2602.5 35H2481L2640 198.387L2481 376H2602.5L2765.5 198.387L2602.5 35Z" stroke="white" stroke-width="20"/>
  <path d="M2602.5 35H2481L2640 198.387L2481 376H2602.5L2765.5 198.387L2602.5 35Z" stroke="#BA44FB" stroke-opacity="0.2" stroke-width="20"/>
  </g>
  <defs>
  <filter id="filter0_d_14_55" x="0.314972" y="0" width="2804.02" height="411" filterUnits="userSpaceOnUse" color-interpolation-filters="sRGB">
  <feFlood flood-opacity="0" result="BackgroundImageFix"/>
  <feColorMatrix in="SourceAlpha" type="matrix" values="0 0 0 0 0 0 0 0 0 0 0 0 0 0 0 0 0 0 127 0" result="hardAlpha"/>
  <feOffset/>
  <feGaussianBlur stdDeviation="12.5"/>
  <feComposite in2="hardAlpha" operator="out"/>
  <feColorMatrix type="matrix" values="0 0 0 0 0.729412 0 0 0 0 0.266667 0 0 0 0 0.984314 0 0 0 1 0"/>
  <feBlend mode="normal" in2="BackgroundImageFix" result="effect1_dropShadow_14_55"/>
  <feBlend mode="normal" in="SourceGraphic" in2="effect1_dropShadow_14_55" result="shape"/>
  </filter>
  </defs>
  </svg>
  