<svg viewBox="0 0 13 176" fill="none" xmlns="http://www.w3.org/2000/svg">
  <mask id="path-1-inside-1_10_48" fill="white">
    <path d="M1 0.999999C1 0.447714 1.44772 0 2 0H12C12.5523 0 13 0.447715 13 1V175C13 175.552 12.5523 176 12 176H2C1.44772 176 1 175.552 1 175V0.999999Z" />
  </mask>
  <path
    d="M1 0H13H1ZM13 176H1H13ZM2 176C0.619288 176 -0.5 174.881 -0.5 173.5V2.5C-0.5 1.11929 0.619288 0 2 0H2.5C2.5 0 2.5 0.447715 2.5 1V175C2.5 175.552 2.5 176 2.5 176H2ZM12 0C13.3807 0 14.5 1.11929 14.5 2.5V173.5C14.5 174.881 13.3807 176 12 176H11.5C11.5 176 11.5 175.552 11.5 175V1C11.5 0.447715 11.5 0 11.5 0H12Z"
    fill="#FF0000"
    fill-opacity="0.5"
    mask="url(#path-1-inside-1_10_48)"
  />
  <rect
    x="0.129779"
    y="0.367987"
    width="7.504"
    height="1.42027"
    rx="0.710135"
    transform="matrix(0.849239 0.528009 -0.330124 0.943938 4.02497 0.952106)"
    stroke="white"
    stroke-width="0.5"
  />
  <rect
    x="0.129779"
    y="0.367987"
    width="7.504"
    height="1.42027"
    rx="0.710135"
    transform="matrix(0.849239 0.528009 -0.330124 0.943938 4.02497 4.95211)"
    stroke="white"
    stroke-width="0.5"
  />
  <rect
    x="0.129779"
    y="0.367987"
    width="7.504"
    height="1.42027"
    rx="0.710135"
    transform="matrix(0.849239 0.528009 -0.330124 0.943938 4.02497 8.95211)"
    stroke="white"
    stroke-width="0.5"
  />
  <rect
    x="0.129779"
    y="0.367987"
    width="7.504"
    height="1.42027"
    rx="0.710135"
    transform="matrix(0.849239 0.528009 -0.330124 0.943938 4.02497 12.9521)"
    stroke="white"
    stroke-width="0.5"
  />
  <rect
    x="0.129779"
    y="0.367987"
    width="7.504"
    height="1.42027"
    rx="0.710135"
    transform="matrix(0.849239 0.528009 -0.330124 0.943938 4.02497 16.9521)"
    stroke="white"
    stroke-width="0.5"
  />
  <rect
    x="0.129779"
    y="0.367987"
    width="7.504"
    height="1.42027"
    rx="0.710135"
    transform="matrix(0.849239 0.528009 -0.330124 0.943938 4.02497 20.9521)"
    stroke="white"
    stroke-width="0.5"
  />
  <rect
    x="0.129779"
    y="0.367987"
    width="7.504"
    height="1.42027"
    rx="0.710135"
    transform="matrix(0.849239 0.528009 -0.330124 0.943938 4.02497 24.9521)"
    stroke="white"
    stroke-width="0.5"
  />
  <rect
    x="0.129779"
    y="0.367987"
    width="7.504"
    height="1.42027"
    rx="0.710135"
    transform="matrix(0.849239 0.528009 -0.330124 0.943938 4.02497 28.9521)"
    stroke="white"
    stroke-width="0.5"
  />
  <rect
    x="0.129779"
    y="0.367987"
    width="7.504"
    height="1.42027"
    rx="0.710135"
    transform="matrix(0.849239 0.528009 -0.330124 0.943938 4.02497 32.9521)"
    stroke="white"
    stroke-width="0.5"
  />
  <rect
    x="0.129779"
    y="0.367987"
    width="7.504"
    height="1.42027"
    rx="0.710135"
    transform="matrix(0.849239 0.528009 -0.330124 0.943938 4.02497 36.9521)"
    stroke="white"
    stroke-width="0.5"
  />
  <rect
    x="0.129779"
    y="0.367987"
    width="7.504"
    height="1.42027"
    rx="0.710135"
    transform="matrix(0.849239 0.528009 -0.330124 0.943938 4.02497 40.9521)"
    stroke="white"
    stroke-width="0.5"
  />
  <rect
    x="0.129779"
    y="0.367987"
    width="7.504"
    height="1.42027"
    rx="0.710135"
    transform="matrix(0.849239 0.528009 -0.330124 0.943938 4.02497 44.9521)"
    stroke="white"
    stroke-width="0.5"
  />
  <rect
    x="0.129779"
    y="0.367987"
    width="7.504"
    height="1.42027"
    rx="0.710135"
    transform="matrix(0.849239 0.528009 -0.330124 0.943938 4.02497 48.9521)"
    stroke="white"
    stroke-width="0.5"
  />
  <rect
    x="0.129779"
    y="0.367987"
    width="7.504"
    height="1.42027"
    rx="0.710135"
    transform="matrix(0.849239 0.528009 -0.330124 0.943938 4.02497 52.9521)"
    stroke="white"
    stroke-width="0.5"
  />
  <rect
    x="0.129779"
    y="0.367987"
    width="7.504"
    height="1.42027"
    rx="0.710135"
    transform="matrix(0.849239 0.528009 -0.330124 0.943938 4.02497 56.9521)"
    stroke="white"
    stroke-width="0.5"
  />
  <rect
    x="0.129779"
    y="0.367987"
    width="7.504"
    height="1.42027"
    rx="0.710135"
    transform="matrix(0.849239 0.528009 -0.330124 0.943938 4.02497 60.9521)"
    stroke="white"
    stroke-width="0.5"
  />
  <rect
    x="0.129779"
    y="0.367987"
    width="7.504"
    height="1.42027"
    rx="0.710135"
    transform="matrix(0.849239 0.528009 -0.330124 0.943938 3.77497 64.9521)"
    stroke="white"
    stroke-width="0.5"
  />
  <rect
    x="0.129779"
    y="0.367987"
    width="7.504"
    height="1.42027"
    rx="0.710135"
    transform="matrix(0.849239 0.528009 -0.330124 0.943938 4.02497 104.952)"
    stroke="white"
    stroke-width="0.5"
  />
  <rect
    x="0.129779"
    y="0.367987"
    width="7.504"
    height="1.42027"
    rx="0.710135"
    transform="matrix(0.849239 0.528009 -0.330124 0.943938 4.02497 104.952)"
    stroke="white"
    stroke-width="0.5"
  />
  <rect
    x="0.129779"
    y="0.367987"
    width="7.504"
    height="1.42027"
    rx="0.710135"
    transform="matrix(0.849239 0.528009 -0.330124 0.943938 4.02105 100.952)"
    stroke="white"
    stroke-width="0.5"
  />
  <rect
    x="0.129779"
    y="0.367987"
    width="7.504"
    height="1.42027"
    rx="0.710135"
    transform="matrix(0.849239 0.528009 -0.330124 0.943938 4.02105 96.9521)"
    stroke="white"
    stroke-width="0.5"
  />
  <rect
    x="0.129779"
    y="0.367987"
    width="7.504"
    height="1.42027"
    rx="0.710135"
    transform="matrix(0.849239 0.528009 -0.330124 0.943938 4.02497 108.952)"
    stroke="white"
    stroke-width="0.5"
  />
  <rect
    x="0.129779"
    y="0.367987"
    width="7.504"
    height="1.42027"
    rx="0.710135"
    transform="matrix(0.849239 0.528009 -0.330124 0.943938 4.02497 112.952)"
    stroke="white"
    stroke-width="0.5"
  />
  <rect
    x="0.129779"
    y="0.367987"
    width="7.504"
    height="1.42027"
    rx="0.710135"
    transform="matrix(0.849239 0.528009 -0.330124 0.943938 4.02497 116.952)"
    stroke="white"
    stroke-width="0.5"
  />
  <rect
    x="0.129779"
    y="0.367987"
    width="7.504"
    height="1.42027"
    rx="0.710135"
    transform="matrix(0.849239 0.528009 -0.330124 0.943938 4.02497 120.952)"
    stroke="white"
    stroke-width="0.5"
  />
  <rect
    x="0.129779"
    y="0.367987"
    width="7.504"
    height="1.42027"
    rx="0.710135"
    transform="matrix(0.849239 0.528009 -0.330124 0.943938 4.02497 124.952)"
    stroke="white"
    stroke-width="0.5"
  />
  <rect
    x="0.129779"
    y="0.367987"
    width="7.504"
    height="1.42027"
    rx="0.710135"
    transform="matrix(0.849239 0.528009 -0.330124 0.943938 4.02497 128.952)"
    stroke="white"
    stroke-width="0.5"
  />
  <rect
    x="0.129779"
    y="0.367987"
    width="7.504"
    height="1.42027"
    rx="0.710135"
    transform="matrix(0.849239 0.528009 -0.330124 0.943938 4.02497 132.952)"
    stroke="white"
    stroke-width="0.5"
  />
  <rect
    x="0.129779"
    y="0.367987"
    width="7.504"
    height="1.42027"
    rx="0.710135"
    transform="matrix(0.849239 0.528009 -0.330124 0.943938 4.02497 136.952)"
    stroke="white"
    stroke-width="0.5"
  />
  <rect
    x="0.129779"
    y="0.367987"
    width="7.504"
    height="1.42027"
    rx="0.710135"
    transform="matrix(0.849239 0.528009 -0.330124 0.943938 4.02497 140.952)"
    stroke="white"
    stroke-width="0.5"
  />
  <rect
    x="0.129779"
    y="0.367987"
    width="7.504"
    height="1.42027"
    rx="0.710135"
    transform="matrix(0.849239 0.528009 -0.330124 0.943938 4.02497 144.952)"
    stroke="white"
    stroke-width="0.5"
  />
  <rect
    x="0.129779"
    y="0.367987"
    width="7.504"
    height="1.42027"
    rx="0.710135"
    transform="matrix(0.849239 0.528009 -0.330124 0.943938 4.02497 148.952)"
    stroke="white"
    stroke-width="0.5"
  />
  <rect
    x="0.129779"
    y="0.367987"
    width="7.504"
    height="1.42027"
    rx="0.710135"
    transform="matrix(0.849239 0.528009 -0.330124 0.943938 4.02497 152.952)"
    stroke="white"
    stroke-width="0.5"
  />
  <rect
    x="0.129779"
    y="0.367987"
    width="7.504"
    height="1.42027"
    rx="0.710135"
    transform="matrix(0.849239 0.528009 -0.330124 0.943938 4.02497 156.952)"
    stroke="white"
    stroke-width="0.5"
  />
  <rect
    x="0.129779"
    y="0.367987"
    width="7.504"
    height="1.42027"
    rx="0.710135"
    transform="matrix(0.849239 0.528009 -0.330124 0.943938 4.02497 160.952)"
    stroke="white"
    stroke-width="0.5"
  />
  <rect
    x="0.129779"
    y="0.367987"
    width="7.504"
    height="1.42027"
    rx="0.710135"
    transform="matrix(0.849239 0.528009 -0.330124 0.943938 4.02497 164.952)"
    stroke="white"
    stroke-width="0.5"
  />
  <rect
    x="0.129779"
    y="0.367987"
    width="7.504"
    height="1.42027"
    rx="0.710135"
    transform="matrix(0.849239 0.528009 -0.330124 0.943938 4.02497 168.952)"
    stroke="white"
    stroke-width="0.5"
  />
  <mask id="path-40-outside-2_10_48" maskUnits="userSpaceOnUse" x="3" y="72" width="8" height="25" fill="black">
    <rect fill="white" x="3" y="72" width="8" height="25" />
    <path d="M8.36364 75.9773C8.72538 75.947 9.01799 75.7992 9.24148 75.5341C9.46496 75.2708 9.5767 74.9299 9.5767 74.5114C9.5767 74.2292 9.52462 73.9782 9.42045 73.7585C9.31629 73.5388 9.17424 73.3665 8.99432 73.2415C8.81439 73.1165 8.60795 73.054 8.375 73.054C8.22538 73.054 8.08996 73.0824 7.96875 73.1392C7.84943 73.1979 7.74242 73.2803 7.64773 73.3864C7.55492 73.4924 7.47348 73.6184 7.40341 73.7642C7.33333 73.91 7.27178 74.071 7.21875 74.2472L7.03125 74.8835C6.96496 75.1013 6.88826 75.3021 6.80114 75.4858C6.71402 75.6714 6.60985 75.8324 6.48864 75.9688C6.36932 76.107 6.22917 76.214 6.06818 76.2898C5.9072 76.3674 5.72159 76.4062 5.51136 76.4062C5.20455 76.4062 4.92992 76.3267 4.6875 76.1676C4.44508 76.0104 4.25379 75.786 4.11364 75.4943C3.97538 75.2045 3.90625 74.8627 3.90625 74.4688C3.90625 74.0938 3.9697 73.767 4.09659 73.4886C4.22348 73.2121 4.39962 72.9934 4.625 72.8324C4.85227 72.6714 5.11364 72.5805 5.40909 72.5597V72.9233C5.16856 72.9422 4.96023 73.0189 4.78409 73.1534C4.60985 73.2898 4.47538 73.4706 4.38068 73.696C4.28598 73.9214 4.23864 74.179 4.23864 74.4688C4.23864 74.7812 4.29167 75.0568 4.39773 75.2955C4.50568 75.5341 4.6553 75.7206 4.84659 75.8551C5.03788 75.9896 5.26042 76.0568 5.5142 76.0568C5.71875 76.0568 5.89394 76.0085 6.03977 75.9119C6.18561 75.8153 6.31155 75.6723 6.41761 75.483C6.52367 75.2955 6.61837 75.0625 6.7017 74.7841L6.90625 74.1051C7.04451 73.6506 7.23295 73.303 7.47159 73.0625C7.71023 72.8239 8.00758 72.7045 8.36364 72.7045C8.66288 72.7045 8.92803 72.7841 9.15909 72.9432C9.39205 73.1023 9.57481 73.3182 9.70739 73.5909C9.83996 73.8655 9.90625 74.1752 9.90625 74.5199C9.90625 74.8665 9.83902 75.1723 9.70455 75.4375C9.57197 75.7027 9.3892 75.9129 9.15625 76.0682C8.92519 76.2235 8.66098 76.3097 8.36364 76.3267V75.9773ZM9.48864 77.4233H9.81818L9.81818 81.5H9.48864V79.6392H4V79.2841H9.48864L9.48864 77.4233ZM4 81.8899V81.5149L9.81818 83.6143V84.0234L4 86.1229V85.7479L9.3608 83.8331V83.8047L4 81.8899ZM6.19034 82.4212V85.2166H5.8608V82.4212H6.19034ZM4 87.2081H9.81818V89.0007C9.81818 89.3681 9.74621 89.6844 9.60227 89.9496C9.45833 90.2147 9.25852 90.4183 9.00284 90.5604C8.74905 90.7024 8.4536 90.7734 8.11648 90.7734C7.78314 90.7734 7.48958 90.7024 7.2358 90.5604C6.9839 90.4183 6.78693 90.2147 6.64489 89.9496C6.50284 89.6863 6.43182 89.371 6.43182 89.0036V87.3984H6.7642V88.995C6.7642 89.2943 6.82008 89.55 6.93182 89.7621C7.04356 89.9742 7.19981 90.1371 7.40057 90.2507C7.60322 90.3643 7.84186 90.4212 8.11648 90.4212C8.39299 90.4212 8.63352 90.3643 8.83807 90.2507C9.04451 90.1371 9.20455 89.9732 9.31818 89.7592C9.43182 89.5471 9.48864 89.2914 9.48864 88.9922V87.5632H4V87.2081ZM6.63636 89.5973L4 91.0291V90.62L6.63636 89.1967V89.5973ZM9.48864 91.8061H9.81818V95.8828H9.48864V94.022H4V93.6669H9.48864V91.8061Z" />
  </mask>
  <path
    d="M8.36364 75.9773C8.72538 75.947 9.01799 75.7992 9.24148 75.5341C9.46496 75.2708 9.5767 74.9299 9.5767 74.5114C9.5767 74.2292 9.52462 73.9782 9.42045 73.7585C9.31629 73.5388 9.17424 73.3665 8.99432 73.2415C8.81439 73.1165 8.60795 73.054 8.375 73.054C8.22538 73.054 8.08996 73.0824 7.96875 73.1392C7.84943 73.1979 7.74242 73.2803 7.64773 73.3864C7.55492 73.4924 7.47348 73.6184 7.40341 73.7642C7.33333 73.91 7.27178 74.071 7.21875 74.2472L7.03125 74.8835C6.96496 75.1013 6.88826 75.3021 6.80114 75.4858C6.71402 75.6714 6.60985 75.8324 6.48864 75.9688C6.36932 76.107 6.22917 76.214 6.06818 76.2898C5.9072 76.3674 5.72159 76.4062 5.51136 76.4062C5.20455 76.4062 4.92992 76.3267 4.6875 76.1676C4.44508 76.0104 4.25379 75.786 4.11364 75.4943C3.97538 75.2045 3.90625 74.8627 3.90625 74.4688C3.90625 74.0938 3.9697 73.767 4.09659 73.4886C4.22348 73.2121 4.39962 72.9934 4.625 72.8324C4.85227 72.6714 5.11364 72.5805 5.40909 72.5597V72.9233C5.16856 72.9422 4.96023 73.0189 4.78409 73.1534C4.60985 73.2898 4.47538 73.4706 4.38068 73.696C4.28598 73.9214 4.23864 74.179 4.23864 74.4688C4.23864 74.7812 4.29167 75.0568 4.39773 75.2955C4.50568 75.5341 4.6553 75.7206 4.84659 75.8551C5.03788 75.9896 5.26042 76.0568 5.5142 76.0568C5.71875 76.0568 5.89394 76.0085 6.03977 75.9119C6.18561 75.8153 6.31155 75.6723 6.41761 75.483C6.52367 75.2955 6.61837 75.0625 6.7017 74.7841L6.90625 74.1051C7.04451 73.6506 7.23295 73.303 7.47159 73.0625C7.71023 72.8239 8.00758 72.7045 8.36364 72.7045C8.66288 72.7045 8.92803 72.7841 9.15909 72.9432C9.39205 73.1023 9.57481 73.3182 9.70739 73.5909C9.83996 73.8655 9.90625 74.1752 9.90625 74.5199C9.90625 74.8665 9.83902 75.1723 9.70455 75.4375C9.57197 75.7027 9.3892 75.9129 9.15625 76.0682C8.92519 76.2235 8.66098 76.3097 8.36364 76.3267V75.9773ZM9.48864 77.4233H9.81818L9.81818 81.5H9.48864V79.6392H4V79.2841H9.48864L9.48864 77.4233ZM4 81.8899V81.5149L9.81818 83.6143V84.0234L4 86.1229V85.7479L9.3608 83.8331V83.8047L4 81.8899ZM6.19034 82.4212V85.2166H5.8608V82.4212H6.19034ZM4 87.2081H9.81818V89.0007C9.81818 89.3681 9.74621 89.6844 9.60227 89.9496C9.45833 90.2147 9.25852 90.4183 9.00284 90.5604C8.74905 90.7024 8.4536 90.7734 8.11648 90.7734C7.78314 90.7734 7.48958 90.7024 7.2358 90.5604C6.9839 90.4183 6.78693 90.2147 6.64489 89.9496C6.50284 89.6863 6.43182 89.371 6.43182 89.0036V87.3984H6.7642V88.995C6.7642 89.2943 6.82008 89.55 6.93182 89.7621C7.04356 89.9742 7.19981 90.1371 7.40057 90.2507C7.60322 90.3643 7.84186 90.4212 8.11648 90.4212C8.39299 90.4212 8.63352 90.3643 8.83807 90.2507C9.04451 90.1371 9.20455 89.9732 9.31818 89.7592C9.43182 89.5471 9.48864 89.2914 9.48864 88.9922V87.5632H4V87.2081ZM6.63636 89.5973L4 91.0291V90.62L6.63636 89.1967V89.5973ZM9.48864 91.8061H9.81818V95.8828H9.48864V94.022H4V93.6669H9.48864V91.8061Z"
    fill="white"
  />
  <path
    d="M8.36364 75.9773L8.3219 75.479L7.86364 75.5174V75.9773H8.36364ZM9.24148 75.5341L8.8603 75.2105L8.85916 75.2119L9.24148 75.5341ZM9.42045 73.7585L9.87224 73.5443L9.87224 73.5443L9.42045 73.7585ZM8.99432 73.2415L9.2796 72.8308L9.2796 72.8308L8.99432 73.2415ZM7.96875 73.1392L7.7565 72.6864L7.748 72.6906L7.96875 73.1392ZM7.64773 73.3864L7.27474 73.0533L7.27144 73.0571L7.64773 73.3864ZM7.40341 73.7642L7.85408 73.9808L7.85408 73.9808L7.40341 73.7642ZM7.21875 74.2472L6.73997 74.103L6.73914 74.1058L7.21875 74.2472ZM7.03125 74.8835L7.50961 75.0291L7.51086 75.0248L7.03125 74.8835ZM6.80114 75.4858L6.34936 75.2716L6.34852 75.2733L6.80114 75.4858ZM6.48864 75.9688L6.11489 75.6365L6.11011 75.6421L6.48864 75.9688ZM6.06818 76.2898L5.85527 75.8373L5.85096 75.8394L6.06818 76.2898ZM4.6875 76.1676L4.96183 75.7496L4.95953 75.7481L4.6875 76.1676ZM4.11364 75.4943L3.66237 75.7096L3.66297 75.7109L4.11364 75.4943ZM4.09659 73.4886L3.64216 73.2801L3.64162 73.2813L4.09659 73.4886ZM4.625 72.8324L4.33599 72.4244L4.33438 72.4255L4.625 72.8324ZM5.40909 72.5597H5.90909V72.0232L5.37392 72.0609L5.40909 72.5597ZM5.40909 72.9233L5.44834 73.4218L5.90909 73.3855V72.9233H5.40909ZM4.78409 73.1534L4.48066 72.756L4.47594 72.7597L4.78409 73.1534ZM4.38068 73.696L3.91972 73.5023L3.91972 73.5023L4.38068 73.696ZM4.39773 75.2955L3.94081 75.4985L3.94217 75.5015L4.39773 75.2955ZM4.84659 75.8551L5.13414 75.4461L5.13414 75.4461L4.84659 75.8551ZM6.03977 75.9119L5.76367 75.4951L6.03977 75.9119ZM6.41761 75.483L5.98241 75.2368L5.98136 75.2387L6.41761 75.483ZM6.7017 74.7841L6.22296 74.6399L6.2227 74.6407L6.7017 74.7841ZM6.90625 74.1051L6.42789 73.9596L6.4275 73.9609L6.90625 74.1051ZM7.47159 73.0625L7.11803 72.7089L7.11664 72.7103L7.47159 73.0625ZM9.15909 72.9432L8.87554 73.355L8.87711 73.3561L9.15909 72.9432ZM9.70739 73.5909L10.1577 73.3735L10.1571 73.3723L9.70739 73.5909ZM9.70455 75.4375L9.25861 75.2113L9.25733 75.2139L9.70455 75.4375ZM9.15625 76.0682L8.8789 75.6522L8.87733 75.6532L9.15625 76.0682ZM8.36364 76.3267H7.86364V76.8562L8.39225 76.8259L8.36364 76.3267ZM8.40538 76.4755C8.89261 76.4347 9.31031 76.2283 9.62379 75.8563L8.85916 75.2119C8.72567 75.3702 8.55815 75.4592 8.3219 75.479L8.40538 76.4755ZM9.62265 75.8577C9.93824 75.4859 10.0767 75.0223 10.0767 74.5114H9.0767C9.0767 74.8376 8.99168 75.0558 8.8603 75.2105L9.62265 75.8577ZM10.0767 74.5114C10.0767 74.1669 10.0129 73.8409 9.87224 73.5443L8.96866 73.9727C9.03637 74.1155 9.0767 74.2914 9.0767 74.5114H10.0767ZM9.87224 73.5443C9.73488 73.2546 9.53887 73.011 9.2796 72.8308L8.70904 73.6521C8.80961 73.722 8.8977 73.8231 8.96866 73.9727L9.87224 73.5443ZM9.2796 72.8308C9.01049 72.6439 8.70312 72.554 8.375 72.554V73.554C8.51279 73.554 8.6183 73.5891 8.70904 73.6521L9.2796 72.8308ZM8.375 72.554C8.16072 72.554 7.9516 72.595 7.75653 72.6865L8.18097 73.5919C8.22832 73.5697 8.29004 73.554 8.375 73.554V72.554ZM7.748 72.6906C7.56707 72.7796 7.40929 72.9027 7.27476 73.0534L8.0207 73.7194C8.07556 73.6579 8.13179 73.6162 8.1895 73.5878L7.748 72.6906ZM7.27144 73.0571C7.14484 73.2018 7.03957 73.367 6.95274 73.5476L7.85408 73.9808C7.9074 73.8698 7.96501 73.7831 8.02402 73.7156L7.27144 73.0571ZM6.95274 73.5476C6.87003 73.7198 6.79949 73.9053 6.73998 74.103L7.69752 74.3913C7.74407 74.2367 7.79663 74.1003 7.85408 73.9808L6.95274 73.5476ZM6.73914 74.1058L6.55164 74.7422L7.51086 75.0248L7.69836 74.3885L6.73914 74.1058ZM6.55291 74.7379C6.49295 74.935 6.42479 75.1125 6.34936 75.2716L7.25291 75.7C7.35172 75.4917 7.43698 75.2677 7.50959 75.0291L6.55291 74.7379ZM6.34852 75.2733C6.27932 75.4208 6.20055 75.5402 6.11493 75.6366L6.86234 76.3009C7.01914 76.1245 7.14871 75.922 7.25376 75.6982L6.34852 75.2733ZM6.11011 75.6421C6.03533 75.7287 5.95116 75.7922 5.85528 75.8374L6.28108 76.7422C6.50718 76.6358 6.7033 76.4853 6.86716 76.2954L6.11011 75.6421ZM5.85096 75.8394C5.76866 75.8791 5.65954 75.9062 5.51136 75.9062V76.9062C5.78365 76.9062 6.04573 76.8557 6.28541 76.7401L5.85096 75.8394ZM5.51136 75.9062C5.29607 75.9062 5.11792 75.852 4.96183 75.7496L4.41317 76.5856C4.74193 76.8014 5.11302 76.9062 5.51136 76.9062V75.9062ZM4.95953 75.7481C4.80314 75.6467 4.66958 75.4969 4.56431 75.2778L3.66297 75.7109C3.83799 76.0751 4.08702 76.3742 4.41547 76.5871L4.95953 75.7481ZM4.5649 75.279C4.46517 75.07 4.40625 74.8048 4.40625 74.4688H3.40625C3.40625 74.9206 3.48559 75.3391 3.66237 75.7096L4.5649 75.279ZM4.40625 74.4688C4.40625 74.1495 4.46025 73.8963 4.55156 73.696L3.64162 73.2813C3.47914 73.6378 3.40625 74.038 3.40625 74.4688H4.40625ZM4.55103 73.6972C4.64522 73.4919 4.76805 73.3447 4.91562 73.2393L4.33438 72.4255C4.03119 72.6421 3.80175 72.9323 3.64216 73.2801L4.55103 73.6972ZM4.91401 73.2404C5.06178 73.1357 5.23409 73.0732 5.44426 73.0584L5.37392 72.0609C4.99318 72.0877 4.64276 72.2071 4.33599 72.4244L4.91401 73.2404ZM4.90909 72.5597V72.9233H5.90909V72.5597H4.90909ZM5.36984 72.4248C5.04224 72.4506 4.74009 72.5579 4.48068 72.756L5.0875 73.5508C5.18036 73.4799 5.29488 73.4338 5.44834 73.4218L5.36984 72.4248ZM4.47594 72.7597C4.22767 72.954 4.04391 73.2068 3.91972 73.5023L4.84165 73.8897C4.90685 73.7345 4.99203 73.6256 5.09225 73.5472L4.47594 72.7597ZM3.91972 73.5023C3.79494 73.7993 3.73864 74.1246 3.73864 74.4688H4.73864C4.73864 74.2334 4.77702 74.0435 4.84165 73.8897L3.91972 73.5023ZM3.73864 74.4688C3.73864 74.8377 3.80133 75.1847 3.94082 75.4985L4.85463 75.0924C4.78201 74.929 4.73864 74.7248 4.73864 74.4688H3.73864ZM3.94217 75.5015C4.08244 75.8116 4.28611 76.0723 4.55904 76.2642L5.13414 75.4461C5.02449 75.369 4.92892 75.2566 4.85328 75.0894L3.94217 75.5015ZM4.55904 76.2642C4.84179 76.4629 5.16673 76.5568 5.5142 76.5568V75.5568C5.3541 75.5568 5.23397 75.5162 5.13414 75.4461L4.55904 76.2642ZM5.5142 76.5568C5.79995 76.5568 6.07506 76.4883 6.31587 76.3288L5.76367 75.4951C5.71282 75.5288 5.63755 75.5568 5.5142 75.5568V76.5568ZM6.31587 76.3288C6.54215 76.1789 6.71811 75.9697 6.85387 75.7273L5.98136 75.2387C5.90499 75.375 5.82906 75.4518 5.76367 75.4951L6.31587 76.3288ZM6.85281 75.7291C6.98238 75.5001 7.09011 75.2301 7.18071 74.9275L6.2227 74.6407C6.14663 74.8949 6.06497 75.0908 5.98241 75.2368L6.85281 75.7291ZM7.18045 74.9283L7.385 74.2493L6.4275 73.9609L6.22296 74.6399L7.18045 74.9283ZM7.38461 74.2506C7.50816 73.8444 7.66364 73.5788 7.82654 73.4147L7.11664 72.7103C6.80226 73.0272 6.58086 73.4567 6.42789 73.9596L7.38461 74.2506ZM7.82514 73.4161C7.96443 73.2768 8.13207 73.2045 8.36364 73.2045V72.2045C7.88308 72.2045 7.45603 72.371 7.11804 72.7089L7.82514 73.4161ZM8.36364 73.2045C8.56873 73.2045 8.73356 73.2573 8.87554 73.355L9.44264 72.5314C9.1225 72.3109 8.75703 72.2045 8.36364 72.2045V73.2045ZM8.87711 73.3561C9.03284 73.4624 9.16022 73.609 9.2577 73.8095L10.1571 73.3723C9.9894 73.0274 9.75125 72.7421 9.44107 72.5303L8.87711 73.3561ZM9.25711 73.8083C9.35293 74.0068 9.40625 74.2406 9.40625 74.5199H10.4062C10.4062 74.1098 10.327 73.7243 10.1577 73.3735L9.25711 73.8083ZM9.40625 74.5199C9.40625 74.8009 9.35208 75.027 9.25861 75.2113L10.1505 75.6637C10.3259 75.3177 10.4062 74.932 10.4062 74.5199H9.40625ZM9.25733 75.2139C9.1613 75.406 9.03516 75.548 8.8789 75.6522L9.4336 76.4842C9.74325 76.2778 9.98264 75.9993 10.1518 75.6611L9.25733 75.2139ZM8.87733 75.6532C8.72586 75.755 8.54938 75.8152 8.33502 75.8275L8.39225 76.8259C8.77259 76.8041 9.12452 76.692 9.43517 76.4832L8.87733 75.6532ZM8.86364 76.3267V75.9773H7.86364V76.3267H8.86364ZM9.48864 77.4233V76.9233H8.98864V77.4233H9.48864ZM9.81818 77.4233H10.3182V76.9233H9.81818V77.4233ZM9.81818 81.5V82H10.3182V81.5H9.81818ZM9.48864 81.5H8.98864V82H9.48864V81.5ZM9.48864 79.6392H9.98864V79.1392H9.48864V79.6392ZM4 79.6392H3.5V80.1392H4L4 79.6392ZM4 79.2841V78.7841H3.5V79.2841H4ZM9.48864 79.2841V79.7841H9.98864V79.2841H9.48864ZM9.48864 77.9233H9.81818V76.9233H9.48864V77.9233ZM9.31818 77.4233L9.31818 81.5H10.3182L10.3182 77.4233H9.31818ZM9.81818 81H9.48864V82H9.81818V81ZM9.98864 81.5V79.6392H8.98864V81.5H9.98864ZM9.48864 79.1392H4L4 80.1392H9.48864V79.1392ZM4.5 79.6392V79.2841H3.5V79.6392H4.5ZM4 79.7841H9.48864V78.7841H4V79.7841ZM9.98864 79.2841L9.98864 77.4233H8.98864L8.98864 79.2841H9.98864ZM4 81.8899H3.5V82.2423L3.83182 82.3608L4 81.8899ZM4 81.5149L4.16971 81.0446L3.5 80.8029V81.5149H4ZM9.81818 83.6143H10.3182V83.2632L9.98789 83.144L9.81818 83.6143ZM9.81818 84.0234L9.98789 84.4938L10.3182 84.3746V84.0234H9.81818ZM4 86.1229H3.5V86.8348L4.16971 86.5932L4 86.1229ZM4 85.7479L3.83182 85.277L3.5 85.3955V85.7479H4ZM9.3608 83.8331L9.52898 84.304L9.8608 84.1854V83.8331H9.3608ZM9.3608 83.8047H9.8608V83.4523L9.52898 83.3338L9.3608 83.8047ZM6.19034 82.4212H6.69034V81.9212H6.19034V82.4212ZM6.19034 85.2166L6.19034 85.7166H6.69034L6.69034 85.2166H6.19034ZM5.8608 85.2166H5.3608L5.3608 85.7166H5.8608L5.8608 85.2166ZM5.8608 82.4212V81.9212H5.3608V82.4212H5.8608ZM4.5 81.8899V81.5149H3.5V81.8899H4.5ZM3.83029 81.9852L9.64847 84.0847L9.98789 83.144L4.16971 81.0446L3.83029 81.9852ZM9.31818 83.6143V84.0234H10.3182V83.6143H9.31818ZM9.64847 83.5531L3.83029 85.6526L4.16971 86.5932L9.98789 84.4938L9.64847 83.5531ZM4.5 86.1229V85.7479H3.5V86.1229H4.5ZM4.16818 86.2187L9.52898 84.304L9.19261 83.3622L3.83182 85.277L4.16818 86.2187ZM9.8608 83.8331V83.8047H8.8608V83.8331H9.8608ZM9.52898 83.3338L4.16818 81.419L3.83182 82.3608L9.19261 84.2756L9.52898 83.3338ZM5.69034 82.4212V85.2166H6.69034V82.4212H5.69034ZM6.19034 84.7166H5.8608L5.8608 85.7166H6.19034L6.19034 84.7166ZM6.3608 85.2166V82.4212H5.3608V85.2166H6.3608ZM5.8608 82.9212H6.19034V81.9212H5.8608V82.9212ZM4 87.2081V86.7081H3.5V87.2081H4ZM9.81818 87.2081H10.3182V86.7081H9.81818V87.2081ZM9.00284 90.5604L8.76002 90.1233L8.75864 90.1241L9.00284 90.5604ZM7.2358 90.5604L6.9902 90.9959L6.99159 90.9967L7.2358 90.5604ZM6.64489 89.9496L7.08563 89.7135L7.08492 89.7121L6.64489 89.9496ZM6.43182 87.3984V86.8984H5.93182V87.3984H6.43182ZM6.7642 87.3984H7.2642V86.8984H6.7642V87.3984ZM6.93182 89.7621L6.48944 89.9951L6.48944 89.9951L6.93182 89.7621ZM7.40057 90.2507L7.15427 90.6858L7.15602 90.6868L7.40057 90.2507ZM8.83807 90.2507L8.59695 89.8127L8.59525 89.8136L8.83807 90.2507ZM9.31818 89.7592L8.87744 89.5231L8.87657 89.5248L9.31818 89.7592ZM9.48864 87.5632H9.98864V87.0632H9.48864V87.5632ZM4 87.5632H3.5L3.5 88.0632H4V87.5632ZM6.63636 89.5973L6.87499 90.0367L7.13636 89.8947V89.5973H6.63636ZM4 91.0291H3.5V91.8697L4.23863 91.4685L4 91.0291ZM4 90.62L3.76247 90.1801L3.5 90.3218V90.62H4ZM6.63636 89.1967H7.13636V88.3586L6.39883 88.7568L6.63636 89.1967ZM4 87.7081H9.81818V86.7081H4V87.7081ZM9.31818 87.2081V89.0007H10.3182L10.3182 87.2081H9.31818ZM9.31818 89.0007C9.31818 89.3028 9.25925 89.5334 9.16285 89.711L10.0417 90.1881C10.2332 89.8354 10.3182 89.4335 10.3182 89.0007H9.31818ZM9.16285 89.711C9.06274 89.8954 8.92991 90.0289 8.76002 90.1233L9.24566 90.9974C9.58713 90.8077 9.85393 90.534 10.0417 90.1881L9.16285 89.711ZM8.75864 90.1241C8.5906 90.2181 8.38182 90.2734 8.11648 90.2734V91.2734C8.52538 91.2734 8.90751 91.1867 9.24704 90.9967L8.75864 90.1241ZM8.11648 90.2734C7.856 90.2734 7.64886 90.2186 7.48 90.1241L6.99159 90.9967C7.33031 91.1863 7.71029 91.2734 8.11648 91.2734V90.2734ZM7.48139 90.1248C7.31558 90.0313 7.18476 89.8985 7.08563 89.7135L6.20415 90.1857C6.38911 90.5309 6.65223 90.8053 6.9902 90.9959L7.48139 90.1248ZM7.08492 89.7121C6.99025 89.5367 6.93182 89.3068 6.93182 89.0036H5.93182C5.93182 89.4352 6.01543 89.8359 6.20485 90.187L7.08492 89.7121ZM6.93182 89.0036V87.3984H5.93182V89.0036H6.93182ZM6.43182 87.8984H6.7642V86.8984H6.43182V87.8984ZM6.2642 87.3984V88.995H7.2642V87.3984H6.2642ZM6.2642 88.995C6.2642 89.3557 6.3316 89.6955 6.48944 89.9951L7.37419 89.529C7.30855 89.4044 7.2642 89.2328 7.2642 88.995H6.2642ZM6.48944 89.9951C6.64399 90.2885 6.86676 90.5231 7.15427 90.6858L7.64687 89.8156C7.53286 89.7511 7.44313 89.6599 7.37419 89.529L6.48944 89.9951ZM7.15602 90.6868C7.44592 90.8494 7.77185 90.9212 8.11648 90.9212V89.9212C7.91186 89.9212 7.76052 89.8793 7.64512 89.8146L7.15602 90.6868ZM8.11648 90.9212C8.46248 90.9212 8.78962 90.8496 9.08089 90.6878L8.59525 89.8136C8.47743 89.8791 8.3235 89.9212 8.11648 89.9212V90.9212ZM9.07918 90.6887C9.37334 90.5268 9.60191 90.2911 9.75979 89.9937L8.87657 89.5248C8.80718 89.6554 8.71567 89.7473 8.59695 89.8127L9.07918 90.6887ZM9.75892 89.9953C9.91982 89.695 9.98864 89.3541 9.98864 88.9922H8.98864C8.98864 89.2288 8.94382 89.3992 8.87744 89.5231L9.75892 89.9953ZM9.98864 88.9922V87.5632H8.98864V88.9922H9.98864ZM9.48864 87.0632H4V88.0632H9.48864V87.0632ZM4.5 87.5632V87.2081H3.5V87.5632H4.5ZM6.39773 89.1579L3.76137 90.5897L4.23863 91.4685L6.87499 90.0367L6.39773 89.1579ZM4.5 91.0291V90.62H3.5V91.0291H4.5ZM4.23753 91.06L6.87389 89.6367L6.39883 88.7568L3.76247 90.1801L4.23753 91.06ZM6.13636 89.1967V89.5973H7.13636V89.1967H6.13636ZM9.48864 91.8061V91.3061H8.98864V91.8061H9.48864ZM9.81818 91.8061H10.3182V91.3061H9.81818V91.8061ZM9.81818 95.8828V96.3828H10.3182V95.8828H9.81818ZM9.48864 95.8828H8.98864V96.3828H9.48864V95.8828ZM9.48864 94.022H9.98864V93.522H9.48864V94.022ZM4 94.022H3.5V94.522H4V94.022ZM4 93.6669V93.1669H3.5V93.6669H4ZM9.48864 93.6669V94.1669H9.98864V93.6669H9.48864ZM9.48864 92.3061H9.81818V91.3061H9.48864V92.3061ZM9.31818 91.8061V95.8828H10.3182V91.8061H9.31818ZM9.81818 95.3828H9.48864V96.3828H9.81818V95.3828ZM9.98864 95.8828V94.022H8.98864V95.8828H9.98864ZM9.48864 93.522H4V94.522H9.48864V93.522ZM4.5 94.022V93.6669H3.5V94.022H4.5ZM4 94.1669H9.48864V93.1669H4V94.1669ZM9.98864 93.6669V91.8061H8.98864V93.6669H9.98864Z"
    fill="#FF0000"
    fill-opacity="0.5"
    mask="url(#path-40-outside-2_10_48)"
  />
</svg>